# 3ds Max Wavefront OBJ Exporter v0.97b - (c)2007 guruware
# File Created: 16.11.2020 19:51:12

mtllib balchang.mtl

#
# object Box001
#

v  -10.0000 -3.6882 10.0000
v  -10.0000 -3.6882 3.3333
v  0.0000 -3.6882 3.3333
v  0.0000 -3.6882 10.0000
v  0.0000 0.0000 10.0000
v  0.0000 0.0000 3.3333
v  10.0000 0.0000 3.3333
v  10.0000 0.0000 10.0000
v  -10.0000 0.0000 3.3333
v  -10.0000 0.0000 -3.3333
v  0.0000 0.0000 -3.3333
v  10.0000 0.0000 -3.3333
v  -10.0000 -3.6882 -3.3333
v  -10.0000 -3.6882 -10.0000
v  0.0000 -3.6882 -10.0000
v  0.0000 -3.6882 -3.3333
v  0.0000 0.0000 -10.0000
v  10.0000 0.0000 -10.0000
v  -10.0000 20.0000 10.0000
v  0.0000 20.0000 10.0000
v  0.0000 20.0000 3.3333
v  -10.0000 20.0000 3.3333
v  10.0000 20.0000 10.0000
v  10.0000 20.0000 3.3333
v  0.0000 20.0000 -3.3333
v  -10.0000 20.0000 -3.3333
v  10.0000 20.0000 -3.3333
v  0.0000 20.0000 -10.0000
v  -10.0000 20.0000 -10.0000
v  10.0000 20.0000 -10.0000
v  -10.0000 0.0000 10.0000
v  0.0000 6.6667 10.0000
v  -10.0000 6.6667 10.0000
v  10.0000 6.6667 10.0000
v  0.0000 13.3333 10.0000
v  -10.0000 13.3333 10.0000
v  10.0000 13.3333 10.0000
v  10.0000 6.6667 3.3333
v  21.6320 2.0513 3.3333
v  21.6320 2.0513 -3.3333
v  21.6320 5.3960 -3.3333
v  21.6320 5.3960 3.3333
v  10.0000 6.6667 -10.0000
v  10.0000 6.6667 -3.3333
v  10.0000 13.3333 3.3333
v  10.0000 13.3333 -3.3333
v  10.0000 13.3333 -10.0000
v  0.0000 6.6667 -10.0000
v  -10.0000 0.0000 -10.0000
v  -10.0000 6.6667 -10.0000
v  0.0000 13.3333 -10.0000
v  -10.0000 13.3333 -10.0000
v  -10.0000 6.6667 -3.3333
v  -10.0000 6.6667 3.3333
v  -10.0000 13.3333 -3.3333
v  -10.0000 13.3333 3.3333
v  -12.5534 0.0000 10.0000
v  -12.5534 0.0000 3.3333
v  -12.5534 -3.6882 3.3333
v  -12.5534 -3.6882 10.0000
v  -12.5534 0.0000 -3.3333
v  -12.5534 0.0000 -10.0000
v  -12.5534 -3.6882 -10.0000
v  -12.5534 -3.6882 -3.3333
# 64 vertices

vn 0.0000 -1.0000 -0.0000
vn 0.0000 1.0000 -0.0000
vn 0.0000 0.0000 1.0000
vn 1.0000 0.0000 -0.0000
vn 0.0000 0.0000 -1.0000
vn -1.0000 0.0000 -0.0000
vn 0.1737 -0.9848 -0.0000
vn 0.1086 0.9941 -0.0000
# 8 vertex normals

vt 0.5051 0.2667 0.0000
vt 0.5116 0.1721 0.0000
vt 0.6535 0.1820 0.0000
vt 0.6470 0.2765 0.0000
vt 0.8196 0.6445 0.0000
vt 0.8196 0.5497 0.0000
vt 0.9619 0.5497 0.0000
vt 0.9619 0.6445 0.0000
vt 0.6774 0.5497 0.0000
vt 0.6774 0.4549 0.0000
vt 0.8196 0.4549 0.0000
vt 0.9619 0.4549 0.0000
vt 0.5051 0.1352 0.0000
vt 0.5116 0.0406 0.0000
vt 0.6535 0.0505 0.0000
vt 0.6470 0.1450 0.0000
vt 0.8196 0.3601 0.0000
vt 0.9619 0.3601 0.0000
vt 0.3419 0.6956 0.0000
vt 0.4841 0.6956 0.0000
vt 0.4841 0.7904 0.0000
vt 0.3419 0.7904 0.0000
vt 0.6263 0.6956 0.0000
vt 0.6263 0.7904 0.0000
vt 0.4841 0.8852 0.0000
vt 0.3419 0.8852 0.0000
vt 0.6263 0.8852 0.0000
vt 0.4841 0.9800 0.0000
vt 0.3419 0.9800 0.0000
vt 0.6263 0.9800 0.0000
vt 0.0200 0.6956 0.0000
vt 0.1622 0.6956 0.0000
vt 0.1622 0.7904 0.0000
vt 0.0200 0.7904 0.0000
vt 0.3044 0.6956 0.0000
vt 0.3044 0.7904 0.0000
vt 0.1622 0.8852 0.0000
vt 0.0200 0.8852 0.0000
vt 0.3044 0.8852 0.0000
vt 0.1622 0.9800 0.0000
vt 0.0200 0.9800 0.0000
vt 0.3044 0.9800 0.0000
vt 0.1137 0.0200 0.0000
vt 0.2032 0.0512 0.0000
vt 0.1720 0.1408 0.0000
vt 0.0825 0.1095 0.0000
vt 0.5505 0.5323 0.0000
vt 0.6217 0.5323 0.0000
vt 0.6217 0.6035 0.0000
vt 0.5505 0.6035 0.0000
vt 0.2927 0.0825 0.0000
vt 0.3823 0.1137 0.0000
vt 0.3510 0.2032 0.0000
vt 0.2615 0.1720 0.0000
vt 0.1408 0.2303 0.0000
vt 0.0512 0.1990 0.0000
vt 0.2303 0.2615 0.0000
vt 0.3198 0.2927 0.0000
vt 0.1095 0.3198 0.0000
vt 0.0200 0.2885 0.0000
vt 0.1990 0.3510 0.0000
vt 0.2885 0.3823 0.0000
vt 0.6774 0.0381 0.0000
vt 0.8196 0.0381 0.0000
vt 0.8196 0.1329 0.0000
vt 0.6774 0.1329 0.0000
vt 0.9619 0.0381 0.0000
vt 0.9619 0.1329 0.0000
vt 0.8196 0.2278 0.0000
vt 0.6774 0.2278 0.0000
vt 0.9619 0.2278 0.0000
vt 0.8196 0.3226 0.0000
vt 0.6774 0.3226 0.0000
vt 0.9619 0.3226 0.0000
vt 0.6638 0.6956 0.0000
vt 0.7586 0.6956 0.0000
vt 0.7586 0.7904 0.0000
vt 0.6638 0.7904 0.0000
vt 0.8535 0.6956 0.0000
vt 0.8535 0.7904 0.0000
vt 0.9483 0.6956 0.0000
vt 0.9483 0.7904 0.0000
vt 0.7586 0.8852 0.0000
vt 0.6638 0.8852 0.0000
vt 0.8535 0.8852 0.0000
vt 0.9483 0.8852 0.0000
vt 0.7586 0.9800 0.0000
vt 0.6638 0.9800 0.0000
vt 0.8535 0.9800 0.0000
vt 0.9483 0.9800 0.0000
vt 0.5274 0.5893 0.0000
vt 0.4326 0.5893 0.0000
vt 0.4326 0.5369 0.0000
vt 0.5274 0.5369 0.0000
vt 0.1655 0.6597 0.0000
vt 0.0236 0.6696 0.0000
vt 0.0200 0.6173 0.0000
vt 0.1619 0.6074 0.0000
vt 0.7722 0.4125 0.0000
vt 0.6774 0.4125 0.0000
vt 0.6774 0.3601 0.0000
vt 0.7722 0.3601 0.0000
vt 0.1985 0.4896 0.0000
vt 0.0563 0.4896 0.0000
vt 0.0563 0.4371 0.0000
vt 0.1985 0.4371 0.0000
vt 0.0200 0.3238 0.0000
vt 0.0754 0.3238 0.0000
vt 0.7904 0.6392 0.0000
vt 0.6956 0.6392 0.0000
vt 0.6956 0.5868 0.0000
vt 0.7904 0.5868 0.0000
vt 0.1655 0.5691 0.0000
vt 0.0236 0.5789 0.0000
vt 0.0200 0.5266 0.0000
vt 0.1619 0.5167 0.0000
vt 0.4503 0.4941 0.0000
vt 0.3555 0.4941 0.0000
vt 0.3555 0.4417 0.0000
vt 0.4503 0.4417 0.0000
vt 0.0200 0.0200 0.0000
vt 0.0200 0.0569 0.0000
vt 0.1981 0.6049 0.0000
vt 0.2017 0.6572 0.0000
vt 0.4689 0.2642 0.0000
vt 0.4754 0.1696 0.0000
vt 0.0200 0.4896 0.0000
vt 0.0200 0.4371 0.0000
vt 0.4054 0.5505 0.0000
vt 0.4054 0.6453 0.0000
vt 0.3691 0.6453 0.0000
vt 0.3691 0.5505 0.0000
vt 0.1981 0.5142 0.0000
vt 0.2017 0.5665 0.0000
vt 0.4689 0.1327 0.0000
vt 0.4754 0.0381 0.0000
vt 0.2376 0.4734 0.0000
vt 0.3324 0.4734 0.0000
vt 0.3324 0.6414 0.0000
vt 0.2376 0.6414 0.0000
vt 0.6464 0.3102 0.0000
vt 0.6358 0.4044 0.0000
vt 0.4734 0.3680 0.0000
vt 0.4787 0.3207 0.0000
vt 0.4458 0.4040 0.0000
vt 0.3510 0.4040 0.0000
vt 0.3510 0.2376 0.0000
vt 0.4458 0.2376 0.0000
vt 0.4779 0.4999 0.0000
vt 0.4854 0.4054 0.0000
vt 0.6480 0.4475 0.0000
vt 0.6443 0.4950 0.0000
# 152 texture coords

o Box001
g Box001
usemtl 01___Default
s 2
f 1/1/1 2/2/1 3/3/1 
f 3/3/1 4/4/1 1/1/1 
f 5/5/1 6/6/1 7/7/1 
f 7/7/1 8/8/1 5/5/1 
f 9/9/1 10/10/1 11/11/1 
f 11/11/1 6/6/1 9/9/1 
f 6/6/1 11/11/1 12/12/1 
f 12/12/1 7/7/1 6/6/1 
f 13/13/1 14/14/1 15/15/1 
f 15/15/1 16/16/1 13/13/1 
f 11/11/1 17/17/1 18/18/1 
f 18/18/1 12/12/1 11/11/1 
s 4
f 19/19/2 20/20/2 21/21/2 
f 21/21/2 22/22/2 19/19/2 
f 20/20/2 23/23/2 24/24/2 
f 24/24/2 21/21/2 20/20/2 
f 22/22/2 21/21/2 25/25/2 
f 25/25/2 26/26/2 22/22/2 
f 21/21/2 24/24/2 27/27/2 
f 27/27/2 25/25/2 21/21/2 
f 26/26/2 25/25/2 28/28/2 
f 28/28/2 29/29/2 26/26/2 
f 25/25/2 27/27/2 30/30/2 
f 30/30/2 28/28/2 25/25/2 
s 8
f 31/31/3 5/32/3 32/33/3 
f 32/33/3 33/34/3 31/31/3 
f 5/32/3 8/35/3 34/36/3 
f 34/36/3 32/33/3 5/32/3 
f 33/34/3 32/33/3 35/37/3 
f 35/37/3 36/38/3 33/34/3 
f 32/33/3 34/36/3 37/39/3 
f 37/39/3 35/37/3 32/33/3 
f 36/38/3 35/37/3 20/40/3 
f 20/40/3 19/41/3 36/38/3 
f 35/37/3 37/39/3 23/42/3 
f 23/42/3 20/40/3 35/37/3 
s 16
f 8/43/4 7/44/4 38/45/4 
f 38/45/4 34/46/4 8/43/4 
f 39/47/4 40/48/4 41/49/4 
f 41/49/4 42/50/4 39/47/4 
f 12/51/4 18/52/4 43/53/4 
f 43/53/4 44/54/4 12/51/4 
f 34/46/4 38/45/4 45/55/4 
f 45/55/4 37/56/4 34/46/4 
f 38/45/4 44/54/4 46/57/4 
f 46/57/4 45/55/4 38/45/4 
f 44/54/4 43/53/4 47/58/4 
f 47/58/4 46/57/4 44/54/4 
f 37/56/4 45/55/4 24/59/4 
f 24/59/4 23/60/4 37/56/4 
f 45/55/4 46/57/4 27/61/4 
f 27/61/4 24/59/4 45/55/4 
f 46/57/4 47/58/4 30/62/4 
f 30/62/4 27/61/4 46/57/4 
s 32
f 18/63/5 17/64/5 48/65/5 
f 48/65/5 43/66/5 18/63/5 
f 17/64/5 49/67/5 50/68/5 
f 50/68/5 48/65/5 17/64/5 
f 43/66/5 48/65/5 51/69/5 
f 51/69/5 47/70/5 43/66/5 
f 48/65/5 50/68/5 52/71/5 
f 52/71/5 51/69/5 48/65/5 
f 47/70/5 51/69/5 28/72/5 
f 28/72/5 30/73/5 47/70/5 
f 51/69/5 52/71/5 29/74/5 
f 29/74/5 28/72/5 51/69/5 
s 64
f 49/75/6 10/76/6 53/77/6 
f 53/77/6 50/78/6 49/75/6 
f 10/76/6 9/79/6 54/80/6 
f 54/80/6 53/77/6 10/76/6 
f 9/79/6 31/81/6 33/82/6 
f 33/82/6 54/80/6 9/79/6 
f 50/78/6 53/77/6 55/83/6 
f 55/83/6 52/84/6 50/78/6 
f 53/77/6 54/80/6 56/85/6 
f 56/85/6 55/83/6 53/77/6 
f 54/80/6 33/82/6 36/86/6 
f 36/86/6 56/85/6 54/80/6 
f 52/84/6 55/83/6 26/87/6 
f 26/87/6 29/88/6 52/84/6 
f 55/83/6 56/85/6 22/89/6 
f 22/89/6 26/87/6 55/83/6 
f 56/85/6 36/86/6 19/90/6 
f 19/90/6 22/89/6 56/85/6 
s off
f 57/91/6 58/92/6 59/93/6 
f 59/93/6 60/94/6 57/91/6 
f 9/95/5 6/96/5 3/97/5 
f 3/97/5 2/98/5 9/95/5 
f 6/99/4 5/100/4 4/101/4 
f 4/101/4 3/102/4 6/99/4 
f 5/103/3 31/104/3 1/105/3 
f 1/105/3 4/106/3 5/103/3 
f 11/107/3 10/108/3 13/108/3 
f 13/108/3 16/107/3 11/107/3 
f 61/109/6 62/110/6 63/111/6 
f 63/111/6 64/112/6 61/109/6 
f 49/113/5 17/114/5 15/115/5 
f 15/115/5 14/116/5 49/113/5 
f 17/117/4 11/118/4 16/119/4 
f 16/119/4 15/120/4 17/117/4 
f 31/121/2 9/122/2 58/122/2 
f 58/122/2 57/121/2 31/121/2 
f 9/95/5 2/98/5 59/123/5 
f 59/123/5 58/124/5 9/95/5 
f 2/2/1 1/1/1 60/125/1 
f 60/125/1 59/126/1 2/2/1 
f 1/105/3 31/104/3 57/127/3 
f 57/127/3 60/128/3 1/105/3 
f 10/129/2 49/130/2 62/131/2 
f 62/131/2 61/132/2 10/129/2 
f 49/113/5 14/116/5 63/133/5 
f 63/133/5 62/134/5 49/113/5 
f 14/14/1 13/13/1 64/135/1 
f 64/135/1 63/136/1 14/14/1 
f 13/108/3 10/108/3 61/108/3 
f 61/108/3 64/108/3 13/108/3 
f 7/137/7 12/138/7 40/139/7 
f 40/139/7 39/140/7 7/137/7 
f 12/141/5 44/142/5 41/143/5 
f 41/143/5 40/144/5 12/141/5 
f 44/145/8 38/146/8 42/147/8 
f 42/147/8 41/148/8 44/145/8 
f 38/149/3 7/150/3 39/151/3 
f 39/151/3 42/152/3 38/149/3 
# 124 faces

