# 3ds Max Wavefront OBJ Exporter v0.97b - (c)2007 guruware
# File Created: 22.11.2020 17:17:56

mtllib coil.mtl

#
# object Box001
#

v  -25.0000 0.0000 25.0000
v  -25.0000 0.0000 8.3333
v  -8.3333 0.0000 8.3333
v  -8.3333 0.0000 25.0000
v  8.3333 0.0000 8.3333
v  8.3333 0.0000 25.0000
v  25.0000 0.0000 8.3333
v  25.0000 0.0000 25.0000
v  -25.0000 0.0000 -8.3333
v  -8.3333 0.0000 -8.3333
v  8.3333 0.0000 -8.3333
v  25.0000 0.0000 -8.3333
v  -25.0000 0.0000 -25.0000
v  -8.3333 0.0000 -25.0000
v  8.3333 0.0000 -25.0000
v  25.0000 0.0000 -25.0000
v  -25.0000 50.0000 25.0000
v  -8.3333 50.0000 25.0000
v  -8.3333 50.0000 8.3333
v  -25.0000 50.0000 8.3333
v  8.3333 50.0000 25.0000
v  8.3333 50.0000 8.3333
v  25.0000 50.0000 25.0000
v  25.0000 50.0000 8.3333
v  -8.3333 50.0000 -8.3333
v  -25.0000 50.0000 -8.3333
v  -13.3333 67.2882 13.3333
v  13.3333 67.2882 13.3333
v  13.3333 67.2882 -13.3333
v  -13.3333 67.2882 -13.3333
v  25.0000 50.0000 -8.3333
v  8.3333 50.0000 -8.3333
v  -8.3333 50.0000 -25.0000
v  -25.0000 50.0000 -25.0000
v  8.3333 50.0000 -25.0000
v  25.0000 50.0000 -25.0000
v  -8.3333 16.6667 25.0000
v  -25.0000 16.6667 25.0000
v  8.3333 16.6667 25.0000
v  25.0000 16.6667 25.0000
v  -8.3333 33.3333 25.0000
v  -25.0000 33.3333 25.0000
v  -8.3333 16.6667 37.8792
v  8.3333 16.6667 37.8792
v  8.3333 33.3333 37.8792
v  -8.3333 33.3333 37.8792
v  25.0000 33.3333 25.0000
v  8.3333 33.3333 25.0000
v  25.0000 16.6667 8.3333
v  25.0000 16.6667 -8.3333
v  25.0000 16.6667 -25.0000
v  25.0000 33.3333 8.3333
v  25.0000 33.3333 -8.3333
v  25.0000 33.3333 -25.0000
v  8.3333 16.6667 -25.0000
v  -8.3333 16.6667 -25.0000
v  -25.0000 16.6667 -25.0000
v  8.3333 33.3333 -25.0000
v  8.3333 16.6667 -36.4135
v  -8.3333 16.6667 -36.4135
v  -8.3333 33.3333 -36.4135
v  8.3333 33.3333 -36.4135
v  -25.0000 33.3333 -25.0000
v  -8.3333 33.3333 -25.0000
v  -25.0000 16.6667 -8.3333
v  -25.0000 16.6667 8.3333
v  -25.0000 33.3333 -8.3333
v  -25.0000 33.3333 8.3333
v  8.3333 57.9382 8.3333
v  -8.3333 57.9382 8.3333
v  8.3333 57.9382 -8.3333
v  -8.3333 57.9382 -8.3333
v  13.3333 57.9382 13.3333
v  -13.3333 57.9382 13.3333
v  13.3333 57.9382 -13.3333
v  -13.3333 57.9382 -13.3333
v  8.3333 16.6667 28.9073
v  -8.3333 16.6667 28.9073
v  8.3333 33.3333 28.9073
v  -8.3333 33.3333 28.9073
v  -8.3333 16.6667 -27.4416
v  8.3333 16.6667 -27.4416
v  -8.3333 33.3333 -27.4416
v  8.3333 33.3333 -27.4416
v  8.3333 4.9642 37.8792
v  -8.3333 4.9642 37.8792
v  -8.3333 4.9642 28.9073
v  8.3333 4.9642 28.9073
v  -8.3333 45.0358 37.8792
v  8.3333 45.0358 37.8792
v  8.3333 45.0358 28.9073
v  -8.3333 45.0358 28.9073
v  -8.3333 4.9642 -36.4135
v  8.3333 4.9642 -36.4135
v  8.3333 4.9642 -27.4416
v  -8.3333 4.9642 -27.4416
v  8.3333 45.0358 -36.4135
v  -8.3333 45.0358 -36.4135
v  -8.3333 45.0358 -27.4416
v  8.3333 45.0358 -27.4416
v  8.3333 16.6667 61.4969
v  -8.3333 16.6667 61.4969
v  -8.3333 4.9642 61.4969
v  8.3333 4.9642 61.4969
v  -8.3333 33.3333 61.4969
v  8.3333 33.3333 61.4969
v  8.3333 45.0358 61.4969
v  -8.3333 45.0358 61.4969
v  -8.3333 16.6667 -60.0312
v  8.3333 16.6667 -60.0312
v  8.3333 4.9642 -60.0312
v  -8.3333 4.9642 -60.0312
v  8.3333 33.3333 -60.0312
v  -8.3333 33.3333 -60.0312
v  -8.3333 45.0358 -60.0312
v  8.3333 45.0358 -60.0312
v  -8.3333 16.6667 55.0000
v  8.3333 16.6667 55.0000
v  -8.3333 4.9642 55.0000
v  8.3333 4.9642 55.0000
v  8.3333 33.3333 55.0000
v  -8.3333 33.3333 55.0000
v  8.3333 45.0358 55.0000
v  -8.3333 45.0358 55.0000
v  8.3333 16.6667 -55.0000
v  -8.3333 16.6667 -55.0000
v  8.3333 4.9642 -55.0000
v  -8.3333 4.9642 -55.0000
v  -8.3333 33.3333 -55.0000
v  8.3333 33.3333 -55.0000
v  -8.3333 45.0358 -55.0000
v  8.3333 45.0358 -55.0000
# 132 vertices

vn 0.0000 -1.0000 -0.0000
vn 0.0000 1.0000 -0.0000
vn 0.0000 0.0000 1.0000
vn 1.0000 -0.0000 -0.0000
vn 1.0000 0.0000 -0.0000
vn 0.0000 -0.0000 -1.0000
vn 0.0000 0.0000 -1.0000
vn -1.0000 0.0000 -0.0000
# 8 vertex normals

vt 0.7505 0.9383 0.0000
vt 0.7505 0.8630 0.0000
vt 0.8258 0.8630 0.0000
vt 0.8258 0.9383 0.0000
vt 0.9010 0.8630 0.0000
vt 0.9010 0.9383 0.0000
vt 0.9762 0.8630 0.0000
vt 0.9762 0.9383 0.0000
vt 0.7505 0.7878 0.0000
vt 0.8258 0.7878 0.0000
vt 0.9010 0.7878 0.0000
vt 0.9762 0.7878 0.0000
vt 0.7505 0.7126 0.0000
vt 0.8258 0.7126 0.0000
vt 0.9010 0.7126 0.0000
vt 0.9762 0.7126 0.0000
vt 0.4944 0.7031 0.0000
vt 0.5696 0.7031 0.0000
vt 0.5696 0.7783 0.0000
vt 0.4944 0.7783 0.0000
vt 0.6448 0.7031 0.0000
vt 0.6448 0.7783 0.0000
vt 0.7201 0.7031 0.0000
vt 0.7201 0.7783 0.0000
vt 0.5696 0.8536 0.0000
vt 0.4944 0.8536 0.0000
vt 0.8596 0.2809 0.0000
vt 0.9800 0.2809 0.0000
vt 0.9800 0.4013 0.0000
vt 0.8596 0.4013 0.0000
vt 0.7201 0.8536 0.0000
vt 0.6448 0.8536 0.0000
vt 0.5696 0.9288 0.0000
vt 0.4944 0.9288 0.0000
vt 0.6448 0.9288 0.0000
vt 0.7201 0.9288 0.0000
vt 0.2003 0.4564 0.0000
vt 0.2755 0.4564 0.0000
vt 0.2755 0.5317 0.0000
vt 0.2003 0.5317 0.0000
vt 0.3507 0.4564 0.0000
vt 0.3507 0.5317 0.0000
vt 0.4260 0.4564 0.0000
vt 0.4260 0.5317 0.0000
vt 0.2755 0.6069 0.0000
vt 0.2003 0.6069 0.0000
vt 0.7108 0.2194 0.0000
vt 0.6567 0.1617 0.0000
vt 0.6934 0.1103 0.0000
vt 0.7654 0.1429 0.0000
vt 0.4260 0.6069 0.0000
vt 0.3507 0.6069 0.0000
vt 0.2755 0.6821 0.0000
vt 0.2003 0.6821 0.0000
vt 0.3507 0.6821 0.0000
vt 0.4260 0.6821 0.0000
vt 0.7505 0.4469 0.0000
vt 0.8258 0.4469 0.0000
vt 0.8258 0.5222 0.0000
vt 0.7505 0.5222 0.0000
vt 0.9010 0.4469 0.0000
vt 0.9010 0.5222 0.0000
vt 0.9762 0.4469 0.0000
vt 0.9762 0.5222 0.0000
vt 0.8258 0.5974 0.0000
vt 0.7505 0.5974 0.0000
vt 0.9010 0.5974 0.0000
vt 0.9762 0.5974 0.0000
vt 0.8258 0.6727 0.0000
vt 0.7505 0.6727 0.0000
vt 0.9010 0.6727 0.0000
vt 0.9762 0.6727 0.0000
vt 0.2429 0.7505 0.0000
vt 0.3182 0.7505 0.0000
vt 0.3182 0.8258 0.0000
vt 0.2429 0.8258 0.0000
vt 0.3934 0.7505 0.0000
vt 0.3934 0.8258 0.0000
vt 0.4687 0.7505 0.0000
vt 0.4687 0.8258 0.0000
vt 0.3182 0.9010 0.0000
vt 0.2429 0.9010 0.0000
vt 0.4502 0.1422 0.0000
vt 0.4036 0.2056 0.0000
vt 0.3402 0.1364 0.0000
vt 0.4072 0.0953 0.0000
vt 0.4687 0.9010 0.0000
vt 0.3934 0.9010 0.0000
vt 0.3182 0.9762 0.0000
vt 0.2429 0.9762 0.0000
vt 0.3934 0.9762 0.0000
vt 0.4687 0.9762 0.0000
vt 0.4517 0.4374 0.0000
vt 0.5269 0.4374 0.0000
vt 0.5269 0.5127 0.0000
vt 0.4517 0.5127 0.0000
vt 0.6022 0.4374 0.0000
vt 0.6022 0.5127 0.0000
vt 0.6774 0.4374 0.0000
vt 0.6774 0.5127 0.0000
vt 0.5269 0.5879 0.0000
vt 0.4517 0.5879 0.0000
vt 0.6022 0.5879 0.0000
vt 0.6774 0.5879 0.0000
vt 0.5269 0.6632 0.0000
vt 0.4517 0.6632 0.0000
vt 0.6022 0.6632 0.0000
vt 0.6774 0.6632 0.0000
vt 0.0390 0.9136 0.0000
vt 0.1042 0.8821 0.0000
vt 0.1276 0.9098 0.0000
vt 0.0537 0.9449 0.0000
vt 0.1432 0.8263 0.0000
vt 0.1770 0.8368 0.0000
vt 0.1425 0.7583 0.0000
vt 0.1775 0.7487 0.0000
vt 0.1064 0.6955 0.0000
vt 0.1362 0.6779 0.0000
vt 0.1457 0.9333 0.0000
vt 0.0392 0.9735 0.0000
vt 0.2049 0.8454 0.0000
vt 0.2057 0.7395 0.0000
vt 0.1405 0.6461 0.0000
vt 0.1323 0.5171 0.0000
vt 0.1042 0.4000 0.0000
vt 0.1453 0.3902 0.0000
vt 0.1734 0.5073 0.0000
vt 0.0762 0.2830 0.0000
vt 0.1172 0.2731 0.0000
vt 0.0481 0.1659 0.0000
vt 0.0891 0.1560 0.0000
vt 0.0200 0.0488 0.0000
vt 0.0610 0.0390 0.0000
vt 0.8204 0.3013 0.0000
vt 0.8087 0.3156 0.0000
vt 0.7586 0.2408 0.0000
vt 0.7723 0.2456 0.0000
vt 0.8782 0.2171 0.0000
vt 0.8897 0.2029 0.0000
vt 0.9422 0.2609 0.0000
vt 0.9293 0.2730 0.0000
vt 0.8104 0.1925 0.0000
vt 0.8013 0.1811 0.0000
vt 0.3506 0.2373 0.0000
vt 0.3584 0.2317 0.0000
vt 0.3152 0.3097 0.0000
vt 0.3081 0.2994 0.0000
vt 0.3038 0.1867 0.0000
vt 0.3103 0.1793 0.0000
vt 0.2375 0.2213 0.0000
vt 0.2279 0.2143 0.0000
vt 0.1971 0.2864 0.0000
vt 0.1876 0.2805 0.0000
vt 0.7452 0.3449 0.0000
vt 0.7079 0.2775 0.0000
vt 0.7334 0.2717 0.0000
vt 0.7662 0.3246 0.0000
vt 0.9313 0.1719 0.0000
vt 0.9746 0.2354 0.0000
vt 0.8190 0.1214 0.0000
vt 0.8944 0.1353 0.0000
vt 0.8825 0.1605 0.0000
vt 0.8218 0.1473 0.0000
vt 0.4119 0.2627 0.0000
vt 0.3808 0.3331 0.0000
vt 0.3582 0.3150 0.0000
vt 0.3863 0.2596 0.0000
vt 0.2124 0.1491 0.0000
vt 0.2845 0.1233 0.0000
vt 0.2854 0.1489 0.0000
vt 0.2280 0.1718 0.0000
vt 0.1508 0.2614 0.0000
vt 0.1814 0.1907 0.0000
vt 0.1265 0.6046 0.0000
vt 0.0528 0.6046 0.0000
vt 0.0528 0.5556 0.0000
vt 0.1265 0.5556 0.0000
vt 0.7900 0.3725 0.0000
vt 0.5082 0.2900 0.0000
vt 0.5819 0.2900 0.0000
vt 0.5819 0.3390 0.0000
vt 0.5082 0.3390 0.0000
vt 0.2757 0.3890 0.0000
vt 0.2013 0.3890 0.0000
vt 0.2013 0.3389 0.0000
vt 0.2757 0.3389 0.0000
vt 0.3393 0.3651 0.0000
vt 0.4717 0.0305 0.0000
vt 0.5460 0.0305 0.0000
vt 0.5460 0.0806 0.0000
vt 0.4717 0.0806 0.0000
vt 0.6313 0.2593 0.0000
vt 0.5940 0.1987 0.0000
vt 0.6436 0.3109 0.0000
vt 0.6840 0.3864 0.0000
vt 0.7245 0.4301 0.0000
vt 0.7083 0.0390 0.0000
vt 0.7777 0.0547 0.0000
vt 0.9156 0.0653 0.0000
vt 0.9693 0.0923 0.0000
vt 0.8307 0.0499 0.0000
vt 0.5230 0.1747 0.0000
vt 0.4932 0.2399 0.0000
vt 0.4517 0.3713 0.0000
vt 0.4167 0.4190 0.0000
vt 0.4850 0.2927 0.0000
vt 0.3132 0.0443 0.0000
vt 0.3808 0.0200 0.0000
vt 0.2595 0.0484 0.0000
vt 0.1784 0.0770 0.0000
vt 0.1291 0.1109 0.0000
vt 0.1403 0.6184 0.0000
vt 0.0390 0.6184 0.0000
vt 0.0390 0.5418 0.0000
vt 0.1403 0.5418 0.0000
vt 0.4944 0.2762 0.0000
vt 0.5957 0.2762 0.0000
vt 0.5957 0.3528 0.0000
vt 0.4944 0.3528 0.0000
vt 0.2862 0.3995 0.0000
vt 0.1908 0.3995 0.0000
vt 0.1908 0.3283 0.0000
vt 0.2862 0.3283 0.0000
vt 0.4611 0.0200 0.0000
vt 0.5566 0.0200 0.0000
vt 0.5566 0.0912 0.0000
vt 0.4611 0.0912 0.0000
# 227 texture coords

o Box001
g Box001
usemtl 01___Default
s 2
f 1/1/1 2/2/1 3/3/1 
f 3/3/1 4/4/1 1/1/1 
f 4/4/1 3/3/1 5/5/1 
f 5/5/1 6/6/1 4/4/1 
f 6/6/1 5/5/1 7/7/1 
f 7/7/1 8/8/1 6/6/1 
f 2/2/1 9/9/1 10/10/1 
f 10/10/1 3/3/1 2/2/1 
f 3/3/1 10/10/1 11/11/1 
f 11/11/1 5/5/1 3/3/1 
f 5/5/1 11/11/1 12/12/1 
f 12/12/1 7/7/1 5/5/1 
f 9/9/1 13/13/1 14/14/1 
f 14/14/1 10/10/1 9/9/1 
f 10/10/1 14/14/1 15/15/1 
f 15/15/1 11/11/1 10/10/1 
f 11/11/1 15/15/1 16/16/1 
f 16/16/1 12/12/1 11/11/1 
s 4
f 17/17/2 18/18/2 19/19/2 
f 19/19/2 20/20/2 17/17/2 
f 18/18/2 21/21/2 22/22/2 
f 22/22/2 19/19/2 18/18/2 
f 21/21/2 23/23/2 24/24/2 
f 24/24/2 22/22/2 21/21/2 
f 20/20/2 19/19/2 25/25/2 
f 25/25/2 26/26/2 20/20/2 
f 27/27/2 28/28/2 29/29/2 
f 29/29/2 30/30/2 27/27/2 
f 22/22/2 24/24/2 31/31/2 
f 31/31/2 32/32/2 22/22/2 
f 26/26/2 25/25/2 33/33/2 
f 33/33/2 34/34/2 26/26/2 
f 25/25/2 32/32/2 35/35/2 
f 35/35/2 33/33/2 25/25/2 
f 32/32/2 31/31/2 36/36/2 
f 36/36/2 35/35/2 32/32/2 
s 8
f 1/37/3 4/38/3 37/39/3 
f 37/39/3 38/40/3 1/37/3 
f 4/38/3 6/41/3 39/42/3 
f 39/42/3 37/39/3 4/38/3 
f 6/41/3 8/43/3 40/44/3 
f 40/44/3 39/42/3 6/41/3 
f 38/40/3 37/39/3 41/45/3 
f 41/45/3 42/46/3 38/40/3 
f 43/47/3 44/48/3 45/49/3 
f 45/49/3 46/50/3 43/47/3 
f 39/42/3 40/44/3 47/51/3 
f 47/51/3 48/52/3 39/42/3 
f 42/46/3 41/45/3 18/53/3 
f 18/53/3 17/54/3 42/46/3 
f 41/45/3 48/52/3 21/55/3 
f 21/55/3 18/53/3 41/45/3 
f 48/52/3 47/51/3 23/56/3 
f 23/56/3 21/55/3 48/52/3 
s 16
f 8/57/4 7/58/4 49/59/4 
f 49/59/4 40/60/4 8/57/4 
f 7/58/4 12/61/4 50/62/4 
f 50/62/4 49/59/4 7/58/4 
f 12/61/4 16/63/4 51/64/4 
f 51/64/4 50/62/4 12/61/4 
f 40/60/4 49/59/4 52/65/5 
f 52/65/5 47/66/5 40/60/4 
f 49/59/4 50/62/4 53/67/5 
f 53/67/5 52/65/5 49/59/4 
f 50/62/4 51/64/4 54/68/5 
f 54/68/5 53/67/5 50/62/4 
f 47/66/5 52/65/5 24/69/5 
f 24/69/5 23/70/5 47/66/5 
f 52/65/5 53/67/5 31/71/5 
f 31/71/5 24/69/5 52/65/5 
f 53/67/5 54/68/5 36/72/5 
f 36/72/5 31/71/5 53/67/5 
s 32
f 16/73/6 15/74/6 55/75/6 
f 55/75/6 51/76/6 16/73/6 
f 15/74/6 14/77/6 56/78/6 
f 56/78/6 55/75/6 15/74/6 
f 14/77/6 13/79/6 57/80/6 
f 57/80/6 56/78/6 14/77/6 
f 51/76/6 55/75/6 58/81/7 
f 58/81/7 54/82/7 51/76/6 
f 59/83/7 60/84/7 61/85/7 
f 61/85/7 62/86/7 59/83/7 
f 56/78/6 57/80/6 63/87/7 
f 63/87/7 64/88/7 56/78/6 
f 54/82/7 58/81/7 35/89/7 
f 35/89/7 36/90/7 54/82/7 
f 58/81/7 64/88/7 33/91/7 
f 33/91/7 35/89/7 58/81/7 
f 64/88/7 63/87/7 34/92/7 
f 34/92/7 33/91/7 64/88/7 
s 64
f 13/93/8 9/94/8 65/95/8 
f 65/95/8 57/96/8 13/93/8 
f 9/94/8 2/97/8 66/98/8 
f 66/98/8 65/95/8 9/94/8 
f 2/97/8 1/99/8 38/100/8 
f 38/100/8 66/98/8 2/97/8 
f 57/96/8 65/95/8 67/101/8 
f 67/101/8 63/102/8 57/96/8 
f 65/95/8 66/98/8 68/103/8 
f 68/103/8 67/101/8 65/95/8 
f 66/98/8 38/100/8 42/104/8 
f 42/104/8 68/103/8 66/98/8 
f 63/102/8 67/101/8 26/105/8 
f 26/105/8 34/106/8 63/102/8 
f 67/101/8 68/103/8 20/107/8 
f 20/107/8 26/105/8 67/101/8 
f 68/103/8 42/104/8 17/108/8 
f 17/108/8 20/107/8 68/103/8 
s off
f 19/109/3 22/110/3 69/111/3 
f 69/111/3 70/112/3 19/109/3 
f 22/110/5 32/113/5 71/114/5 
f 71/114/5 69/111/5 22/110/5 
f 32/113/7 25/115/7 72/116/7 
f 72/116/7 71/114/7 32/113/7 
f 25/115/8 19/117/8 70/118/8 
f 70/118/8 72/116/8 25/115/8 
f 70/112/1 69/111/1 73/119/1 
f 73/119/1 74/120/1 70/112/1 
f 69/111/1 71/114/1 75/121/1 
f 75/121/1 73/119/1 69/111/1 
f 71/114/1 72/116/1 76/122/1 
f 76/122/1 75/121/1 71/114/1 
f 72/116/1 70/118/1 74/123/1 
f 74/123/1 76/122/1 72/116/1 
f 74/124/3 73/125/3 28/126/3 
f 28/126/3 27/127/3 74/124/3 
f 73/125/5 75/128/5 29/129/5 
f 29/129/5 28/126/5 73/125/5 
f 75/128/7 76/130/7 30/131/7 
f 30/131/7 29/129/7 75/128/7 
f 76/130/8 74/132/8 27/133/8 
f 27/133/8 30/131/8 76/130/8 
f 39/134/1 77/135/1 78/136/1 
f 78/136/1 37/137/1 39/134/1 
f 48/138/5 79/139/5 77/140/5 
f 77/140/5 39/141/5 48/138/5 
f 41/142/2 80/143/2 79/139/2 
f 79/139/2 48/138/2 41/142/2 
f 37/137/8 78/136/8 80/143/8 
f 80/143/8 41/142/8 37/137/8 
f 56/144/1 81/145/1 82/146/1 
f 82/146/1 55/147/1 56/144/1 
f 64/148/8 83/149/8 81/145/8 
f 81/145/8 56/144/8 64/148/8 
f 58/150/2 84/151/2 83/149/2 
f 83/149/2 64/148/2 58/150/2 
f 55/152/5 82/153/5 84/151/5 
f 84/151/5 58/150/5 55/152/5 
f 85/154/1 86/155/1 87/156/1 
f 87/156/1 88/157/1 85/154/1 
f 45/158/5 44/159/5 77/140/5 
f 77/140/5 79/139/5 45/158/5 
f 89/160/2 90/161/2 91/162/2 
f 91/162/2 92/163/2 89/160/2 
f 43/47/8 46/50/8 80/143/8 
f 80/143/8 78/136/8 43/47/8 
f 93/164/1 94/165/1 95/166/1 
f 95/166/1 96/167/1 93/164/1 
f 61/85/8 60/84/8 81/145/8 
f 81/145/8 83/149/8 61/85/8 
f 97/168/2 98/169/2 99/170/2 
f 99/170/2 100/171/2 97/168/2 
f 59/172/5 62/173/5 84/151/5 
f 84/151/5 82/153/5 59/172/5 
f 101/174/3 102/175/3 103/176/3 
f 103/176/3 104/177/3 101/174/3 
f 43/47/8 78/136/8 87/156/8 
f 87/156/8 86/155/8 43/47/8 
f 78/136/7 77/135/7 88/157/7 
f 88/157/7 87/156/7 78/136/7 
f 77/135/5 44/178/5 85/154/5 
f 85/154/5 88/157/5 77/135/5 
f 105/179/3 106/180/3 107/181/3 
f 107/181/3 108/182/3 105/179/3 
f 45/158/5 79/139/5 91/162/5 
f 91/162/5 90/161/5 45/158/5 
f 79/139/7 80/143/7 92/163/7 
f 92/163/7 91/162/7 79/139/7 
f 80/143/8 46/50/8 89/160/8 
f 89/160/8 92/163/8 80/143/8 
f 109/183/7 110/184/7 111/185/7 
f 111/185/7 112/186/7 109/183/7 
f 59/187/5 82/146/5 95/166/5 
f 95/166/5 94/165/5 59/187/5 
f 82/146/3 81/145/3 96/167/3 
f 96/167/3 95/166/3 82/146/3 
f 81/145/8 60/84/8 93/164/8 
f 93/164/8 96/167/8 81/145/8 
f 113/188/7 114/189/7 115/190/7 
f 115/190/7 116/191/7 113/188/7 
f 61/85/8 83/149/8 99/170/8 
f 99/170/8 98/169/8 61/85/8 
f 83/149/3 84/151/3 100/171/3 
f 100/171/3 99/170/3 83/149/3 
f 84/151/5 62/173/5 97/168/5 
f 97/168/5 100/171/5 84/151/5 
f 43/47/2 117/192/2 118/193/2 
f 118/193/2 44/48/2 43/47/2 
f 86/155/8 119/194/8 117/192/8 
f 117/192/8 43/47/8 86/155/8 
f 85/154/1 120/195/1 119/194/1 
f 119/194/1 86/155/1 85/154/1 
f 44/178/5 118/196/5 120/195/5 
f 120/195/5 85/154/5 44/178/5 
f 45/49/1 121/197/1 122/198/1 
f 122/198/1 46/50/1 45/49/1 
f 90/161/5 123/199/5 121/200/5 
f 121/200/5 45/158/5 90/161/5 
f 89/160/2 124/201/2 123/199/2 
f 123/199/2 90/161/2 89/160/2 
f 46/50/8 122/198/8 124/201/8 
f 124/201/8 89/160/8 46/50/8 
f 59/83/2 125/202/2 126/203/2 
f 126/203/2 60/84/2 59/83/2 
f 94/165/5 127/204/5 125/205/5 
f 125/205/5 59/187/5 94/165/5 
f 93/164/1 128/206/1 127/204/1 
f 127/204/1 94/165/1 93/164/1 
f 60/84/8 126/203/8 128/206/8 
f 128/206/8 93/164/8 60/84/8 
f 61/85/1 129/207/1 130/208/1 
f 130/208/1 62/86/1 61/85/1 
f 98/169/8 131/209/8 129/207/8 
f 129/207/8 61/85/8 98/169/8 
f 97/168/2 132/210/2 131/209/2 
f 131/209/2 98/169/2 97/168/2 
f 62/173/5 130/211/5 132/210/5 
f 132/210/5 97/168/5 62/173/5 
f 102/175/2 101/174/2 118/212/2 
f 118/212/2 117/213/2 102/175/2 
f 103/176/8 102/175/8 117/213/8 
f 117/213/8 119/214/8 103/176/8 
f 104/177/1 103/176/1 119/214/1 
f 119/214/1 120/215/1 104/177/1 
f 101/174/5 104/177/5 120/215/5 
f 120/215/5 118/212/5 101/174/5 
f 106/180/1 105/179/1 122/216/1 
f 122/216/1 121/217/1 106/180/1 
f 107/181/5 106/180/5 121/217/5 
f 121/217/5 123/218/5 107/181/5 
f 108/182/2 107/181/2 123/218/2 
f 123/218/2 124/219/2 108/182/2 
f 105/179/8 108/182/8 124/219/8 
f 124/219/8 122/216/8 105/179/8 
f 110/184/2 109/183/2 126/220/2 
f 126/220/2 125/221/2 110/184/2 
f 111/185/5 110/184/5 125/221/5 
f 125/221/5 127/222/5 111/185/5 
f 112/186/1 111/185/1 127/222/1 
f 127/222/1 128/223/1 112/186/1 
f 109/183/8 112/186/8 128/223/8 
f 128/223/8 126/220/8 109/183/8 
f 114/189/1 113/188/1 130/224/1 
f 130/224/1 129/225/1 114/189/1 
f 115/190/8 114/189/8 129/225/8 
f 129/225/8 131/226/8 115/190/8 
f 116/191/2 115/190/2 131/226/2 
f 131/226/2 132/227/2 116/191/2 
f 113/188/5 116/191/5 132/227/5 
f 132/227/5 130/224/5 113/188/5 
# 260 faces

