# 3ds Max Wavefront OBJ Exporter v0.97b - (c)2007 guruware
# File Created: 22.11.2020 18:02:12

mtllib pang.mtl

#
# object Box001
#

v  -25.0000 12.0325 25.0000
v  -25.0000 12.0325 8.3333
v  -8.3333 12.0325 8.3333
v  -8.3333 12.0325 25.0000
v  8.3333 12.0325 8.3333
v  8.3333 12.0325 25.0000
v  25.0000 12.0325 8.3333
v  25.0000 12.0325 25.0000
v  -25.0000 2.0325 8.3333
v  -25.0000 2.0325 -8.3333
v  -8.3333 2.0325 -8.3333
v  -8.3333 2.0325 8.3333
v  -8.3333 12.0325 -8.3333
v  8.3333 12.0325 -8.3333
v  8.3333 2.0325 8.3333
v  8.3333 2.0325 -8.3333
v  25.0000 2.0325 -8.3333
v  25.0000 2.0325 8.3333
v  -25.0000 12.0325 -8.3333
v  -25.0000 12.0325 -25.0000
v  -8.3333 12.0325 -25.0000
v  8.3333 12.0325 -25.0000
v  25.0000 12.0325 -25.0000
v  25.0000 12.0325 -8.3333
v  -25.0000 62.0325 25.0000
v  -8.3333 62.0325 25.0000
v  -8.3333 62.0325 8.3333
v  -25.0000 62.0325 8.3333
v  8.3333 62.0325 25.0000
v  8.3333 62.0325 8.3333
v  2.7778 62.0325 8.3333
v  -2.7778 62.0325 8.3333
v  25.0000 62.0325 25.0000
v  25.0000 62.0325 8.3333
v  -8.3333 62.0325 -8.3333
v  -25.0000 62.0325 -8.3333
v  2.7778 62.0325 -8.3333
v  -2.7778 62.0325 -8.3333
v  25.0000 62.0325 -8.3333
v  8.3333 62.0325 -8.3333
v  -8.3333 62.0325 -25.0000
v  -25.0000 62.0325 -25.0000
v  8.3333 62.0325 -25.0000
v  25.0000 62.0325 -25.0000
v  -8.3333 28.6992 25.0000
v  -25.0000 28.6992 25.0000
v  8.3333 28.6992 25.0000
v  25.0000 28.6992 25.0000
v  -8.3333 45.3658 25.0000
v  -25.0000 45.3658 25.0000
v  8.3333 45.3658 25.0000
v  25.0000 45.3658 25.0000
v  25.0000 28.6992 8.3333
v  25.0000 28.6992 -8.3333
v  25.0000 28.6992 -25.0000
v  25.0000 45.3658 8.3333
v  25.0000 45.3658 -8.3333
v  25.0000 45.3658 -25.0000
v  8.3333 28.6992 -25.0000
v  -8.3333 28.6992 -25.0000
v  -25.0000 28.6992 -25.0000
v  8.3333 45.3658 -25.0000
v  -8.3333 45.3658 -25.0000
v  -25.0000 45.3658 -25.0000
v  -25.0000 28.6992 -8.3333
v  -25.0000 28.6992 8.3333
v  -25.0000 45.3658 -8.3333
v  -25.0000 45.3658 8.3333
v  -25.0000 7.0325 8.3333
v  -8.3333 7.0325 8.3333
v  -25.0000 7.0325 -8.3333
v  -8.3333 7.0325 -8.3333
v  8.3333 7.0325 8.3333
v  25.0000 7.0325 8.3333
v  8.3333 7.0325 -8.3333
v  25.0000 7.0325 -8.3333
v  -25.0000 7.0325 -27.2348
v  -8.3333 7.0325 -27.2348
v  -8.3333 2.0325 -27.2348
v  -25.0000 2.0325 -27.2348
v  8.3333 7.0325 -27.2348
v  25.0000 7.0325 -27.2348
v  25.0000 2.0325 -27.2348
v  8.3333 2.0325 -27.2348
v  6.7778 78.3443 -2.4444
v  3.2222 78.3443 -2.4444
v  3.2222 78.3443 2.4444
v  6.7778 78.3443 2.4444
v  -6.7778 78.3443 2.4444
v  -3.2222 78.3443 2.4444
v  -3.2222 78.3443 -2.4444
v  -6.7778 78.3443 -2.4444
v  6.7778 68.3443 7.3333
v  3.2222 68.3443 7.3333
v  6.7778 68.3443 -7.3333
v  6.7778 68.3443 -2.4444
v  6.7778 68.3443 2.4444
v  3.2222 68.3443 -7.3333
v  3.2222 68.3443 2.4444
v  3.2222 68.3443 -2.4444
v  -6.7778 68.3443 7.3333
v  -6.7778 68.3443 2.4444
v  -6.7778 68.3443 -2.4444
v  -6.7778 68.3443 -7.3333
v  -3.2222 68.3443 7.3333
v  -3.2222 68.3443 -7.3333
v  -3.2222 68.3443 -2.4444
v  -3.2222 68.3443 2.4444
v  6.7778 75.3943 -2.4444
v  3.2222 75.3943 -2.4444
v  -6.7778 75.3943 -2.4444
v  -3.2222 75.3943 -2.4444
v  5.4259 75.0366 -23.4792
v  5.4259 74.4287 -23.2493
v  4.5741 74.4287 -23.2493
v  4.5741 75.0366 -23.4792
v  -4.5741 75.0366 -23.4792
v  -4.5741 74.4287 -23.2493
v  -5.4259 74.4287 -23.2493
v  -5.4259 75.0366 -23.4792
v  6.2778 77.8443 -15.4444
v  3.7222 77.8443 -15.4444
v  6.2778 75.8943 -15.4444
v  6.2778 76.5443 -15.4444
v  6.2778 77.1943 -15.4444
v  3.7222 75.8943 -15.4444
v  3.7222 77.1943 -15.4444
v  3.7222 76.5443 -15.4444
v  -3.7222 77.8443 -15.4444
v  -6.2778 77.8443 -15.4444
v  -3.7222 75.8943 -15.4444
v  -3.7222 76.5443 -15.4444
v  -3.7222 77.1943 -15.4444
v  -6.2778 75.8943 -15.4444
v  -6.2778 77.1943 -15.4444
v  -6.2778 76.5443 -15.4444
v  5.4259 77.1943 -15.4444
v  4.5741 77.1943 -15.4444
v  4.5741 76.5443 -15.4444
v  5.4259 76.5443 -15.4444
v  -4.5741 77.1943 -15.4444
v  -5.4259 77.1943 -15.4444
v  -5.4259 76.5443 -15.4444
v  -4.5741 76.5443 -15.4444
v  5.4259 76.7911 -18.8399
v  4.5741 76.7911 -18.8399
v  5.4259 76.1831 -18.6100
v  4.5741 76.1831 -18.6100
v  -4.5741 76.7911 -18.8399
v  -5.4259 76.7911 -18.8399
v  -4.5741 76.1831 -18.6100
v  -5.4259 76.1831 -18.6100
# 152 vertices

vn 0.0000 -1.0000 -0.0000
vn 0.0000 1.0000 -0.0000
vn 0.0000 0.0000 1.0000
vn 1.0000 -0.0000 -0.0000
vn 1.0000 0.0000 -0.0000
vn 0.0000 -0.0000 -1.0000
vn 0.0000 0.0000 -1.0000
vn -1.0000 0.0000 -0.0000
vn 0.0000 0.1565 0.9877
vn 0.9709 0.2393 -0.0000
vn 0.0000 0.1565 -0.9877
vn -0.9975 0.0702 -0.0000
vn -0.9709 0.2393 -0.0000
vn 0.9975 0.0702 -0.0000
vn -0.0000 0.0000 1.0000
vn 0.0000 -0.3537 -0.9353
vn 0.0000 0.9993 -0.0384
vn 0.9993 0.0000 -0.0384
vn 0.0000 -0.9993 -0.0384
vn -0.9993 0.0000 -0.0384
vn 0.0000 0.9930 -0.1179
vn 1.0000 0.0000 0.0000
vn 0.0000 -0.9936 0.1134
vn -0.0000 -0.9936 0.1134
vn -1.0000 -0.0000 -0.0000
vn 0.0000 0.9353 -0.3537
vn 0.0000 -0.9353 0.3537
# 27 vertex normals

vt 0.3603 0.2560 0.0000
vt 0.3947 0.1774 0.0000
vt 0.4733 0.2119 0.0000
vt 0.4388 0.2907 0.0000
vt 0.5519 0.2464 0.0000
vt 0.5174 0.3251 0.0000
vt 0.6306 0.2809 0.0000
vt 0.5960 0.3594 0.0000
vt 0.8401 0.3427 0.0000
vt 0.8219 0.2639 0.0000
vt 0.9082 0.2495 0.0000
vt 0.9166 0.3299 0.0000
vt 0.5078 0.1332 0.0000
vt 0.5865 0.1677 0.0000
vt 0.8599 0.8864 0.0000
vt 0.8417 0.8076 0.0000
vt 0.9279 0.7931 0.0000
vt 0.9363 0.8736 0.0000
vt 0.4291 0.0987 0.0000
vt 0.4636 0.0200 0.0000
vt 0.5423 0.0545 0.0000
vt 0.6210 0.0891 0.0000
vt 0.6997 0.1236 0.0000
vt 0.6652 0.2023 0.0000
vt 0.2551 0.4911 0.0000
vt 0.3341 0.5268 0.0000
vt 0.2956 0.6029 0.0000
vt 0.2172 0.5702 0.0000
vt 0.4145 0.5620 0.0000
vt 0.3845 0.6420 0.0000
vt 0.3497 0.6266 0.0000
vt 0.3305 0.6182 0.0000
vt 0.4942 0.5960 0.0000
vt 0.4616 0.6775 0.0000
vt 0.2578 0.6885 0.0000
vt 0.1808 0.6522 0.0000
vt 0.3120 0.7125 0.0000
vt 0.2927 0.7040 0.0000
vt 0.4259 0.7598 0.0000
vt 0.3471 0.7278 0.0000
vt 0.2272 0.7681 0.0000
vt 0.1467 0.7331 0.0000
vt 0.3092 0.8042 0.0000
vt 0.3895 0.8396 0.0000
vt 0.4041 0.3694 0.0000
vt 0.3255 0.3345 0.0000
vt 0.4829 0.4040 0.0000
vt 0.5618 0.4382 0.0000
vt 0.3694 0.4482 0.0000
vt 0.2906 0.4130 0.0000
vt 0.4484 0.4829 0.0000
vt 0.5277 0.5170 0.0000
vt 0.6748 0.3933 0.0000
vt 0.6408 0.4722 0.0000
vt 0.7537 0.4273 0.0000
vt 0.7197 0.5062 0.0000
vt 0.8326 0.4613 0.0000
vt 0.7986 0.5402 0.0000
vt 0.6068 0.5510 0.0000
vt 0.6857 0.5851 0.0000
vt 0.7647 0.6191 0.0000
vt 0.5729 0.6300 0.0000
vt 0.6517 0.6640 0.0000
vt 0.7306 0.6980 0.0000
vt 0.4895 0.7070 0.0000
vt 0.5741 0.7070 0.0000
vt 0.5741 0.7915 0.0000
vt 0.4895 0.7915 0.0000
vt 0.6586 0.7070 0.0000
vt 0.6586 0.7915 0.0000
vt 0.7432 0.7070 0.0000
vt 0.7432 0.7915 0.0000
vt 0.5741 0.8761 0.0000
vt 0.4895 0.8761 0.0000
vt 0.6586 0.8761 0.0000
vt 0.7432 0.8761 0.0000
vt 0.5741 0.9606 0.0000
vt 0.4895 0.9606 0.0000
vt 0.6586 0.9606 0.0000
vt 0.7432 0.9606 0.0000
vt 0.1252 0.1508 0.0000
vt 0.2036 0.1859 0.0000
vt 0.1686 0.2643 0.0000
vt 0.0901 0.2292 0.0000
vt 0.2820 0.2210 0.0000
vt 0.2470 0.2994 0.0000
vt 0.1335 0.3427 0.0000
vt 0.0551 0.3077 0.0000
vt 0.2120 0.3778 0.0000
vt 0.0985 0.4212 0.0000
vt 0.0200 0.3861 0.0000
vt 0.1769 0.4562 0.0000
vt 0.9344 0.3533 0.0000
vt 0.8308 0.3706 0.0000
vt 0.8361 0.3544 0.0000
vt 0.9242 0.3396 0.0000
vt 0.7762 0.2911 0.0000
vt 0.7973 0.2720 0.0000
vt 0.7833 0.0345 0.0000
vt 0.8700 0.0200 0.0000
vt 0.8743 0.0460 0.0000
vt 0.7877 0.0605 0.0000
vt 0.9602 0.2603 0.0000
vt 0.9340 0.2491 0.0000
vt 0.9542 0.8969 0.0000
vt 0.8506 0.9143 0.0000
vt 0.8558 0.8981 0.0000
vt 0.9440 0.8833 0.0000
vt 0.7960 0.8348 0.0000
vt 0.8171 0.8156 0.0000
vt 0.8031 0.5782 0.0000
vt 0.8897 0.5637 0.0000
vt 0.8941 0.5897 0.0000
vt 0.8074 0.6042 0.0000
vt 0.9800 0.8040 0.0000
vt 0.9538 0.7928 0.0000
vt 0.7997 0.1595 0.0000
vt 0.8952 0.1435 0.0000
vt 0.8888 0.1580 0.0000
vt 0.8104 0.1711 0.0000
vt 0.8194 0.7032 0.0000
vt 0.9150 0.6872 0.0000
vt 0.9085 0.7016 0.0000
vt 0.8302 0.7147 0.0000
vt 0.2302 0.0841 0.0000
vt 0.2049 0.0873 0.0000
vt 0.2108 0.0701 0.0000
vt 0.2202 0.0689 0.0000
vt 0.0549 0.0764 0.0000
vt 0.0714 0.0838 0.0000
vt 0.0612 0.1065 0.0000
vt 0.0448 0.0990 0.0000
vt 0.3650 0.6502 0.0000
vt 0.3546 0.6460 0.0000
vt 0.3398 0.7078 0.0000
vt 0.3470 0.6881 0.0000
vt 0.3554 0.6688 0.0000
vt 0.3297 0.7030 0.0000
vt 0.3483 0.6659 0.0000
vt 0.3400 0.6848 0.0000
vt 0.3028 0.6229 0.0000
vt 0.2955 0.6425 0.0000
vt 0.2870 0.6618 0.0000
vt 0.2774 0.6804 0.0000
vt 0.3129 0.6277 0.0000
vt 0.2878 0.6846 0.0000
vt 0.2941 0.6647 0.0000
vt 0.3025 0.6458 0.0000
vt 0.2210 0.0200 0.0000
vt 0.2484 0.0276 0.0000
vt 0.2400 0.0636 0.0000
vt 0.2983 0.0249 0.0000
vt 0.3043 0.0602 0.0000
vt 0.2866 0.0632 0.0000
vt 0.2805 0.0280 0.0000
vt 0.1732 0.0370 0.0000
vt 0.1980 0.0229 0.0000
vt 0.1903 0.0698 0.0000
vt 0.0532 0.0200 0.0000
vt 0.0758 0.0302 0.0000
vt 0.0323 0.0663 0.0000
vt 0.0385 0.0526 0.0000
vt 0.0922 0.0376 0.0000
vt 0.1148 0.0478 0.0000
vt 0.1002 0.0804 0.0000
vt 0.0940 0.0940 0.0000
vt 0.7233 0.0200 0.0000
vt 0.7294 0.0552 0.0000
vt 0.7116 0.0583 0.0000
vt 0.7055 0.0231 0.0000
vt 0.0247 0.2534 0.0000
vt 0.0246 0.2501 0.0000
vt 0.0289 0.2499 0.0000
vt 0.0290 0.2532 0.0000
vt 0.3559 0.0655 0.0000
vt 0.3558 0.0622 0.0000
vt 0.3601 0.0621 0.0000
vt 0.3602 0.0654 0.0000
vt 0.2326 0.1525 0.0000
vt 0.2193 0.1542 0.0000
vt 0.2721 0.0669 0.0000
vt 0.3003 0.1278 0.0000
vt 0.2971 0.1287 0.0000
vt 0.2939 0.1295 0.0000
vt 0.2907 0.1303 0.0000
vt 0.3131 0.1256 0.0000
vt 0.3192 0.0588 0.0000
vt 0.3229 0.1247 0.0000
vt 0.3196 0.1250 0.0000
vt 0.3163 0.1253 0.0000
vt 0.0318 0.1656 0.0000
vt 0.0200 0.1603 0.0000
vt 0.6971 0.0620 0.0000
vt 0.7253 0.1229 0.0000
vt 0.7221 0.1237 0.0000
vt 0.7190 0.1245 0.0000
vt 0.7158 0.1253 0.0000
vt 0.7381 0.1207 0.0000
vt 0.7443 0.0538 0.0000
vt 0.7480 0.1198 0.0000
vt 0.7447 0.1201 0.0000
vt 0.7414 0.1204 0.0000
vt 0.3147 0.1354 0.0000
vt 0.3020 0.1376 0.0000
vt 0.3014 0.1343 0.0000
vt 0.3057 0.1336 0.0000
vt 0.3099 0.1329 0.0000
vt 0.3142 0.1322 0.0000
vt 0.3136 0.1289 0.0000
vt 0.3094 0.1296 0.0000
vt 0.3051 0.1304 0.0000
vt 0.3009 0.1311 0.0000
vt 0.7398 0.1305 0.0000
vt 0.7270 0.1327 0.0000
vt 0.7265 0.1294 0.0000
vt 0.7307 0.1287 0.0000
vt 0.7350 0.1279 0.0000
vt 0.7392 0.1272 0.0000
vt 0.7387 0.1240 0.0000
vt 0.7344 0.1247 0.0000
vt 0.7302 0.1254 0.0000
vt 0.7259 0.1262 0.0000
vt 0.3027 0.1165 0.0000
vt 0.3070 0.1158 0.0000
vt 0.0232 0.2085 0.0000
vt 0.0237 0.2248 0.0000
vt 0.0205 0.2253 0.0000
vt 0.0200 0.2082 0.0000
vt 0.0275 0.2084 0.0000
vt 0.0281 0.2246 0.0000
vt 0.0307 0.2078 0.0000
vt 0.0314 0.2249 0.0000
vt 0.7278 0.1116 0.0000
vt 0.7321 0.1108 0.0000
vt 0.3544 0.0207 0.0000
vt 0.3549 0.0370 0.0000
vt 0.3516 0.0375 0.0000
vt 0.3511 0.0204 0.0000
vt 0.3586 0.0206 0.0000
vt 0.3593 0.0368 0.0000
vt 0.3618 0.0200 0.0000
vt 0.3626 0.0371 0.0000
vt 0.2985 0.0917 0.0000
vt 0.3028 0.0910 0.0000
vt 0.0214 0.2502 0.0000
vt 0.0322 0.2499 0.0000
vt 0.7236 0.0868 0.0000
vt 0.7278 0.0860 0.0000
vt 0.3525 0.0624 0.0000
vt 0.3633 0.0621 0.0000
# 250 texture coords

o Box001
g Box001
usemtl 01___Default
s 2
f 1/1/1 2/2/1 3/3/1 
f 3/3/1 4/4/1 1/1/1 
f 4/4/1 3/3/1 5/5/1 
f 5/5/1 6/6/1 4/4/1 
f 6/6/1 5/5/1 7/7/1 
f 7/7/1 8/8/1 6/6/1 
f 9/9/1 10/10/1 11/11/1 
f 11/11/1 12/12/1 9/9/1 
f 3/3/1 13/13/1 14/14/1 
f 14/14/1 5/5/1 3/3/1 
f 15/15/1 16/16/1 17/17/1 
f 17/17/1 18/18/1 15/15/1 
f 19/19/1 20/20/1 21/21/1 
f 21/21/1 13/13/1 19/19/1 
f 13/13/1 21/21/1 22/22/1 
f 22/22/1 14/14/1 13/13/1 
f 14/14/1 22/22/1 23/23/1 
f 23/23/1 24/24/1 14/14/1 
s 4
f 25/25/2 26/26/2 27/27/2 
f 27/27/2 28/28/2 25/25/2 
f 26/26/2 29/29/2 30/30/2 
f 26/26/2 30/30/2 31/31/2 
f 26/26/2 31/31/2 32/32/2 
f 26/26/2 32/32/2 27/27/2 
f 29/29/2 33/33/2 34/34/2 
f 34/34/2 30/30/2 29/29/2 
f 28/28/2 27/27/2 35/35/2 
f 35/35/2 36/36/2 28/28/2 
f 31/31/2 37/37/2 38/38/2 
f 38/38/2 32/32/2 31/31/2 
f 30/30/2 34/34/2 39/39/2 
f 39/39/2 40/40/2 30/30/2 
f 36/36/2 35/35/2 41/41/2 
f 41/41/2 42/42/2 36/36/2 
f 37/37/2 40/40/2 43/43/2 
f 38/38/2 37/37/2 43/43/2 
f 35/35/2 38/38/2 43/43/2 
f 35/35/2 43/43/2 41/41/2 
f 40/40/2 39/39/2 44/44/2 
f 44/44/2 43/43/2 40/40/2 
s 8
f 1/1/3 4/4/3 45/45/3 
f 45/45/3 46/46/3 1/1/3 
f 4/4/3 6/6/3 47/47/3 
f 47/47/3 45/45/3 4/4/3 
f 6/6/3 8/8/3 48/48/3 
f 48/48/3 47/47/3 6/6/3 
f 46/46/3 45/45/3 49/49/3 
f 49/49/3 50/50/3 46/46/3 
f 45/45/3 47/47/3 51/51/3 
f 51/51/3 49/49/3 45/45/3 
f 47/47/3 48/48/3 52/52/3 
f 52/52/3 51/51/3 47/47/3 
f 50/50/3 49/49/3 26/26/3 
f 26/26/3 25/25/3 50/50/3 
f 49/49/3 51/51/3 29/29/3 
f 29/29/3 26/26/3 49/49/3 
f 51/51/3 52/52/3 33/33/3 
f 33/33/3 29/29/3 51/51/3 
s 16
f 8/8/4 7/53/4 53/54/4 
f 53/54/4 48/48/4 8/8/4 
f 7/53/4 24/55/4 54/56/4 
f 54/56/4 53/54/4 7/53/4 
f 24/55/4 23/57/4 55/58/4 
f 55/58/4 54/56/4 24/55/4 
f 48/48/4 53/54/4 56/59/5 
f 56/59/5 52/52/5 48/48/4 
f 53/54/4 54/56/4 57/60/5 
f 57/60/5 56/59/5 53/54/4 
f 54/56/4 55/58/4 58/61/5 
f 58/61/5 57/60/5 54/56/4 
f 52/52/5 56/59/5 34/62/5 
f 34/62/5 33/33/5 52/52/5 
f 56/59/5 57/60/5 39/63/5 
f 39/63/5 34/62/5 56/59/5 
f 57/60/5 58/61/5 44/64/5 
f 44/64/5 39/63/5 57/60/5 
s 32
f 23/65/6 22/66/6 59/67/6 
f 59/67/6 55/68/6 23/65/6 
f 22/66/6 21/69/6 60/70/6 
f 60/70/6 59/67/6 22/66/6 
f 21/69/6 20/71/6 61/72/6 
f 61/72/6 60/70/6 21/69/6 
f 55/68/6 59/67/6 62/73/7 
f 62/73/7 58/74/7 55/68/6 
f 59/67/6 60/70/6 63/75/7 
f 63/75/7 62/73/7 59/67/6 
f 60/70/6 61/72/6 64/76/7 
f 64/76/7 63/75/7 60/70/6 
f 58/74/7 62/73/7 43/77/7 
f 43/77/7 44/78/7 58/74/7 
f 62/73/7 63/75/7 41/79/7 
f 41/79/7 43/77/7 62/73/7 
f 63/75/7 64/76/7 42/80/7 
f 42/80/7 41/79/7 63/75/7 
s 64
f 20/81/8 19/82/8 65/83/8 
f 65/83/8 61/84/8 20/81/8 
f 19/82/8 2/85/8 66/86/8 
f 66/86/8 65/83/8 19/82/8 
f 2/85/8 1/1/8 46/46/8 
f 46/46/8 66/86/8 2/85/8 
f 61/84/8 65/83/8 67/87/8 
f 67/87/8 64/88/8 61/84/8 
f 65/83/8 66/86/8 68/89/8 
f 68/89/8 67/87/8 65/83/8 
f 66/86/8 46/46/8 50/50/8 
f 50/50/8 68/89/8 66/86/8 
f 64/88/8 67/87/8 36/90/8 
f 36/90/8 42/91/8 64/88/8 
f 67/87/8 68/89/8 28/92/8 
f 28/92/8 36/90/8 67/87/8 
f 68/89/8 50/50/8 25/25/8 
f 25/25/8 28/92/8 68/89/8 
s off
f 3/93/3 2/94/3 69/95/3 
f 69/95/3 70/96/3 3/93/3 
f 2/94/8 19/97/8 71/98/8 
f 71/98/8 69/95/8 2/94/8 
f 19/99/7 13/100/7 72/101/7 
f 72/101/7 71/102/7 19/99/7 
f 13/103/5 3/93/5 70/96/5 
f 70/96/5 72/104/5 13/103/5 
f 7/105/3 5/106/3 73/107/3 
f 73/107/3 74/108/3 7/105/3 
f 5/106/8 14/109/8 75/110/8 
f 75/110/8 73/107/8 5/106/8 
f 14/111/7 24/112/7 76/113/7 
f 76/113/7 75/114/7 14/111/7 
f 24/115/5 7/105/5 74/108/5 
f 74/108/5 76/116/5 24/115/5 
f 70/96/3 69/95/3 9/9/3 
f 9/9/3 12/12/3 70/96/3 
f 69/95/8 71/98/8 10/10/8 
f 10/10/8 9/9/8 69/95/8 
f 77/117/7 78/118/7 79/119/7 
f 79/119/7 80/120/7 77/117/7 
f 72/104/5 70/96/5 12/12/5 
f 12/12/5 11/11/5 72/104/5 
f 74/108/3 73/107/3 15/15/3 
f 15/15/3 18/18/3 74/108/3 
f 73/107/8 75/110/8 16/16/8 
f 16/16/8 15/15/8 73/107/8 
f 81/121/7 82/122/7 83/123/7 
f 83/123/7 84/124/7 81/121/7 
f 76/116/5 74/108/5 18/18/5 
f 18/18/5 17/17/5 76/116/5 
f 71/102/2 72/101/2 78/118/2 
f 78/118/2 77/117/2 71/102/2 
f 72/104/5 11/11/5 79/119/5 
f 79/119/5 78/118/5 72/104/5 
f 11/11/1 10/10/1 80/120/1 
f 80/120/1 79/119/1 11/11/1 
f 10/10/8 71/98/8 77/117/8 
f 77/117/8 80/120/8 10/10/8 
f 75/114/2 76/113/2 82/122/2 
f 82/122/2 81/121/2 75/114/2 
f 76/116/5 17/17/5 83/123/5 
f 83/123/5 82/122/5 76/116/5 
f 17/17/1 16/16/1 84/124/1 
f 84/124/1 83/123/1 17/17/1 
f 16/16/8 75/110/8 81/121/8 
f 81/121/8 84/124/8 16/16/8 
s 4
f 85/125/2 86/126/2 87/127/2 
f 87/127/2 88/128/2 85/125/2 
f 89/129/2 90/130/2 91/131/2 
f 91/131/2 92/132/2 89/129/2 
s off
f 31/31/9 30/30/9 93/133/9 
f 93/133/9 94/134/9 31/31/9 
f 30/30/10 40/40/10 95/135/10 
f 30/30/10 95/135/10 96/136/10 
f 30/30/10 96/136/10 97/137/10 
f 30/30/10 97/137/10 93/133/10 
f 40/40/11 37/37/11 98/138/11 
f 98/138/11 95/135/11 40/40/11 
f 37/37/12 31/31/12 94/134/12 
f 37/37/12 94/134/12 99/139/12 
f 37/37/12 99/139/12 100/140/12 
f 37/37/12 100/140/12 98/138/12 
f 35/35/13 27/27/13 101/141/13 
f 35/35/13 101/141/13 102/142/13 
f 35/35/13 102/142/13 103/143/13 
f 35/35/13 103/143/13 104/144/13 
f 27/27/9 32/32/9 105/145/9 
f 105/145/9 101/141/9 27/27/9 
f 32/32/14 38/38/14 106/146/14 
f 32/32/14 106/146/14 107/147/14 
f 32/32/14 107/147/14 108/148/14 
f 32/32/14 108/148/14 105/145/14 
f 38/38/11 35/35/11 104/144/11 
f 104/144/11 106/146/11 38/38/11 
s 4
f 95/135/2 98/138/2 100/140/2 
f 100/140/2 96/136/2 95/135/2 
f 94/134/2 93/133/2 97/137/2 
f 97/137/2 99/139/2 94/134/2 
f 101/141/2 105/145/2 108/148/2 
f 108/148/2 102/142/2 101/141/2 
f 106/146/2 104/144/2 103/143/2 
f 103/143/2 107/147/2 106/146/2 
s off
f 97/149/5 96/150/5 109/151/5 
f 97/149/5 109/151/5 85/125/5 
f 97/149/5 85/125/5 88/128/5 
f 100/152/7 110/153/7 109/154/7 
f 109/154/7 96/155/7 100/152/7 
f 100/156/8 99/157/8 87/127/8 
f 87/127/8 86/126/8 110/158/8 
f 100/156/8 87/127/8 110/158/8 
f 99/157/15 97/149/15 88/128/15 
f 88/128/15 87/127/15 99/157/15 
f 103/159/8 102/160/8 89/129/8 
f 89/129/8 92/161/8 111/162/8 
f 103/159/8 89/129/8 111/162/8 
f 102/160/15 108/163/15 90/130/15 
f 90/130/15 89/129/15 102/160/15 
f 108/163/5 107/164/5 112/165/5 
f 108/163/5 112/165/5 91/166/5 
f 108/163/5 91/166/5 90/130/5 
f 103/167/7 111/168/7 112/169/7 
f 112/169/7 107/170/7 103/167/7 
f 113/171/16 114/172/16 115/173/16 
f 115/173/16 116/174/16 113/171/16 
f 117/175/16 118/176/16 119/177/16 
f 119/177/16 120/178/16 117/175/16 
f 86/126/17 85/125/17 121/179/17 
f 121/179/17 122/180/17 86/126/17 
f 85/181/18 109/154/18 123/182/18 
f 85/181/18 123/182/18 124/183/18 
f 85/181/18 124/183/18 125/184/18 
f 85/181/18 125/184/18 121/185/18 
f 109/154/19 110/153/19 126/186/19 
f 126/186/19 123/182/19 109/154/19 
f 110/153/20 86/187/20 122/188/20 
f 110/153/20 122/188/20 127/189/20 
f 110/153/20 127/189/20 128/190/20 
f 110/153/20 128/190/20 126/186/20 
f 92/132/17 91/131/17 129/191/17 
f 129/191/17 130/192/17 92/132/17 
f 91/193/18 112/169/18 131/194/18 
f 91/193/18 131/194/18 132/195/18 
f 91/193/18 132/195/18 133/196/18 
f 91/193/18 133/196/18 129/197/18 
f 112/169/19 111/168/19 134/198/19 
f 134/198/19 131/194/19 112/169/19 
f 111/168/20 92/199/20 130/200/20 
f 111/168/20 130/200/20 135/201/20 
f 111/168/20 135/201/20 136/202/20 
f 111/168/20 136/202/20 134/198/20 
f 122/203/7 121/204/7 125/205/7 
f 122/203/6 125/205/6 137/206/6 
f 122/203/7 137/206/7 138/207/7 
f 127/208/7 122/203/7 138/207/7 
f 123/182/7 126/186/7 128/209/7 
f 123/182/6 128/209/6 139/210/6 
f 123/182/7 139/210/7 140/211/7 
f 124/212/7 123/182/7 140/211/7 
f 130/213/7 129/214/7 133/215/7 
f 130/213/6 133/215/6 141/216/6 
f 130/213/7 141/216/7 142/217/7 
f 135/218/7 130/213/7 142/217/7 
f 131/194/7 134/198/7 136/219/7 
f 131/194/6 136/219/6 143/220/6 
f 131/194/7 143/220/7 144/221/7 
f 132/222/7 131/194/7 144/221/7 
f 125/205/7 124/212/7 140/211/7 
f 140/211/7 137/206/7 125/205/7 
f 128/209/7 127/208/7 138/207/7 
f 138/207/7 139/210/7 128/209/7 
f 133/215/7 132/222/7 144/221/7 
f 144/221/7 141/216/7 133/215/7 
f 136/219/7 135/218/7 142/217/7 
f 142/217/7 143/220/7 136/219/7 
f 137/206/21 145/223/21 146/224/21 
f 146/224/21 138/207/21 137/206/21 
f 140/225/22 147/226/22 145/227/22 
f 145/227/22 137/228/22 140/225/22 
f 139/229/23 148/230/23 147/226/23 
f 147/226/24 140/225/24 139/229/24 
f 138/231/25 146/232/25 148/230/25 
f 148/230/8 139/229/8 138/231/8 
f 141/216/21 149/233/21 150/234/21 
f 150/234/21 142/217/21 141/216/21 
f 144/235/22 151/236/22 149/237/22 
f 149/237/22 141/238/22 144/235/22 
f 143/239/23 152/240/23 151/236/23 
f 151/236/24 144/235/24 143/239/24 
f 142/241/25 150/242/25 152/240/25 
f 152/240/8 143/239/8 142/241/8 
f 113/243/26 116/244/26 146/224/26 
f 146/224/26 145/223/26 113/243/26 
f 114/172/22 113/245/22 145/227/22 
f 145/227/22 147/226/22 114/172/22 
f 115/173/27 114/172/27 147/226/27 
f 147/226/27 148/230/27 115/173/27 
f 116/246/25 115/173/25 148/230/25 
f 148/230/25 146/232/25 116/246/25 
f 117/247/26 120/248/26 150/234/26 
f 150/234/26 149/233/26 117/247/26 
f 118/176/22 117/249/22 149/237/22 
f 149/237/22 151/236/22 118/176/22 
f 119/177/27 118/176/27 151/236/27 
f 151/236/27 152/240/27 119/177/27 
f 120/250/25 119/177/25 152/240/25 
f 152/240/25 150/242/25 120/250/25 
# 300 faces

