# 3ds Max Wavefront OBJ Exporter v0.97b - (c)2007 guruware
# File Created: 23.11.2020 00:40:55

mtllib pot.mtl

#
# object Box001
#

v  -25.0000 0.0000 25.0000
v  -25.0000 0.0000 -25.0000
v  25.0000 0.0000 -25.0000
v  25.0000 0.0000 25.0000
v  3.9844 40.0000 3.9844
v  3.9844 40.0000 -3.9844
v  -3.9844 40.0000 -3.9844
v  -3.9844 40.0000 3.9844
v  25.0000 28.5714 25.0000
v  -25.0000 28.5714 25.0000
v  -25.0000 21.4286 25.0000
v  25.0000 21.4286 25.0000
v  25.0000 28.5714 -25.0000
v  25.0000 21.4286 -25.0000
v  -25.0000 28.5714 -25.0000
v  -25.0000 21.4286 -25.0000
v  25.0000 50.0000 25.0000
v  25.0000 50.0000 -25.0000
v  19.1250 50.0000 -25.0000
v  19.1250 50.0000 -19.1250
v  19.1250 50.0000 -6.3750
v  19.1250 50.0000 6.3750
v  19.1250 50.0000 19.1250
v  19.1250 50.0000 25.0000
v  -25.0000 50.0000 -25.0000
v  -25.0000 50.0000 25.0000
v  -19.1250 50.0000 25.0000
v  -19.1250 50.0000 19.1250
v  -19.1250 50.0000 6.3750
v  -19.1250 50.0000 -6.3750
v  -19.1250 50.0000 -19.1250
v  -19.1250 50.0000 -25.0000
v  -16.7344 50.0000 -19.1250
v  -8.7656 50.0000 -19.1250
v  -6.3750 50.0000 -19.1250
v  6.3750 50.0000 -19.1250
v  8.7656 50.0000 -19.1250
v  16.7344 50.0000 -19.1250
v  16.7344 50.0000 19.1250
v  8.7656 50.0000 19.1250
v  6.3750 50.0000 19.1250
v  -6.3750 50.0000 19.1250
v  -8.7656 50.0000 19.1250
v  -16.7344 50.0000 19.1250
v  -8.7656 40.0000 -3.9844
v  -16.7344 40.0000 -3.9844
v  -16.7344 40.0000 3.9844
v  -8.7656 40.0000 3.9844
v  8.7656 40.0000 3.9844
v  16.7344 40.0000 3.9844
v  16.7344 40.0000 -3.9844
v  8.7656 40.0000 -3.9844
v  3.9844 40.0000 16.7344
v  3.9844 40.0000 8.7656
v  -3.9844 40.0000 8.7656
v  -3.9844 40.0000 16.7344
v  -3.9844 40.0000 -16.7344
v  -3.9844 40.0000 -8.7656
v  3.9844 40.0000 -8.7656
v  3.9844 40.0000 -16.7344
v  -8.7656 40.0000 8.7656
v  -16.7344 40.0000 8.7656
v  -16.7344 40.0000 16.7344
v  -8.7656 40.0000 16.7344
v  -16.7344 40.0000 -8.7656
v  -8.7656 40.0000 -8.7656
v  -8.7656 40.0000 -16.7344
v  -16.7344 40.0000 -16.7344
v  8.7656 40.0000 -8.7656
v  16.7344 40.0000 -8.7656
v  16.7344 40.0000 -16.7344
v  8.7656 40.0000 -16.7344
v  16.7344 40.0000 8.7656
v  8.7656 40.0000 8.7656
v  8.7656 40.0000 16.7344
v  16.7344 40.0000 16.7344
v  -6.3750 50.0000 -3.9844
v  -6.3750 50.0000 -6.3750
v  -8.7656 50.0000 -6.3750
v  -6.3750 50.0000 3.9844
v  -6.3750 50.0000 6.3750
v  -8.7656 50.0000 -3.9844
v  -8.7656 50.0000 3.9844
v  -8.7656 50.0000 6.3750
v  -16.7344 50.0000 6.3750
v  -16.7344 50.0000 3.9844
v  -16.7344 50.0000 -3.9844
v  -16.7344 50.0000 -6.3750
v  -6.3750 50.0000 8.7656
v  -6.3750 50.0000 16.7344
v  -8.7656 50.0000 8.7656
v  -8.7656 50.0000 16.7344
v  -16.7344 50.0000 16.7344
v  -16.7344 50.0000 8.7656
v  -16.7344 50.0000 -8.7656
v  -16.7344 50.0000 -16.7344
v  -6.3750 50.0000 -16.7344
v  -6.3750 50.0000 -8.7656
v  -8.7656 50.0000 -16.7344
v  -8.7656 50.0000 -8.7656
v  6.3750 50.0000 6.3750
v  6.3750 50.0000 3.9844
v  3.9844 50.0000 3.9844
v  -3.9844 50.0000 3.9844
v  6.3750 50.0000 -6.3750
v  -3.9844 50.0000 -3.9844
v  3.9844 50.0000 -3.9844
v  6.3750 50.0000 -3.9844
v  6.3750 50.0000 16.7344
v  3.9844 50.0000 16.7344
v  -3.9844 50.0000 16.7344
v  -3.9844 50.0000 8.7656
v  3.9844 50.0000 8.7656
v  6.3750 50.0000 8.7656
v  -3.9844 50.0000 -16.7344
v  3.9844 50.0000 -16.7344
v  6.3750 50.0000 -16.7344
v  6.3750 50.0000 -8.7656
v  3.9844 50.0000 -8.7656
v  -3.9844 50.0000 -8.7656
v  8.7656 50.0000 -6.3750
v  8.7656 50.0000 6.3750
v  8.7656 50.0000 3.9844
v  8.7656 50.0000 -3.9844
v  16.7344 50.0000 -6.3750
v  16.7344 50.0000 -3.9844
v  16.7344 50.0000 3.9844
v  16.7344 50.0000 6.3750
v  8.7656 50.0000 -8.7656
v  8.7656 50.0000 -16.7344
v  16.7344 50.0000 -16.7344
v  16.7344 50.0000 -8.7656
v  16.7344 50.0000 8.7656
v  16.7344 50.0000 16.7344
v  8.7656 50.0000 16.7344
v  8.7656 50.0000 8.7656
v  25.0000 42.8571 25.0000
v  -25.0000 42.8571 25.0000
v  -25.0000 35.7143 25.0000
v  25.0000 35.7143 25.0000
v  25.0000 7.1429 25.0000
v  -25.0000 7.1429 25.0000
v  25.0000 14.2857 25.0000
v  -25.0000 14.2857 25.0000
v  25.0000 42.8571 17.8571
v  25.0000 42.8571 10.7143
v  25.0000 42.8571 3.5714
v  25.0000 42.8571 -3.5714
v  25.0000 42.8571 -10.7143
v  25.0000 42.8571 -17.8571
v  25.0000 42.8571 -25.0000
v  25.0000 35.7143 17.8571
v  25.0000 35.7143 10.7143
v  25.0000 35.7143 3.5714
v  25.0000 35.7143 -3.5714
v  25.0000 35.7143 -10.7143
v  25.0000 35.7143 -17.8571
v  25.0000 35.7143 -25.0000
v  25.0000 7.1429 -25.0000
v  25.0000 14.2857 -25.0000
v  -25.0000 42.8571 -25.0000
v  -25.0000 35.7143 -25.0000
v  -25.0000 7.1429 -25.0000
v  -25.0000 14.2857 -25.0000
v  -25.0000 42.8571 -17.8571
v  -25.0000 42.8571 -10.7143
v  -25.0000 42.8571 -3.5714
v  -25.0000 42.8571 3.5714
v  -25.0000 42.8571 10.7143
v  -25.0000 42.8571 17.8571
v  -25.0000 35.7143 -17.8571
v  -25.0000 35.7143 -10.7143
v  -25.0000 35.7143 -3.5714
v  -25.0000 35.7143 3.5714
v  -25.0000 35.7143 10.7143
v  -25.0000 35.7143 17.8571
v  -40.0000 42.8571 3.5714
v  -40.0000 35.7143 3.5714
v  -40.0000 35.7143 10.7143
v  -40.0000 42.8571 10.7143
v  40.0000 42.8571 -3.5714
v  40.0000 35.7143 -3.5714
v  40.0000 35.7143 -10.7143
v  40.0000 42.8571 -10.7143
v  -40.0000 42.8571 -10.7143
v  -40.0000 35.7143 -10.7143
v  -40.0000 35.7143 -3.5714
v  -40.0000 42.8571 -3.5714
v  40.0000 42.8571 10.7143
v  40.0000 35.7143 10.7143
v  40.0000 35.7143 3.5714
v  40.0000 42.8571 3.5714
v  -35.0000 42.8571 3.5714
v  -35.0000 42.8571 10.7143
v  -35.0000 35.7143 3.5714
v  -35.0000 35.7143 10.7143
v  35.0000 42.8571 -3.5714
v  35.0000 42.8571 -10.7143
v  35.0000 35.7143 -3.5714
v  35.0000 35.7143 -10.7143
v  -35.0000 42.8571 -10.7143
v  -35.0000 42.8571 -3.5714
v  -35.0000 35.7143 -10.7143
v  -35.0000 35.7143 -3.5714
v  35.0000 42.8571 10.7143
v  35.0000 42.8571 3.5714
v  35.0000 35.7143 10.7143
v  35.0000 35.7143 3.5714
# 208 vertices

vn 0.0000 -1.0000 -0.0000
vn 0.0000 1.0000 -0.0000
vn 0.0000 0.0000 1.0000
vn 1.0000 0.0000 -0.0000
vn 0.0000 0.0000 -1.0000
vn -1.0000 0.0000 -0.0000
# 6 vertex normals

vt 1.0000 0.0000 0.0000
vt 1.0000 1.0000 0.0000
vt 0.0000 1.0000 0.0000
vt 0.0000 0.0000 0.0000
vt 0.5797 0.4203 0.0000
vt 0.5797 0.5797 0.0000
vt 0.4203 0.5797 0.0000
vt 0.4203 0.4203 0.0000
vt 1.0000 0.5714 0.0000
vt 0.0000 0.5714 0.0000
vt 0.0000 0.4286 0.0000
vt 1.0000 0.4286 0.0000
vt 0.8825 1.0000 0.0000
vt 0.8825 0.8825 0.0000
vt 0.8825 0.6275 0.0000
vt 0.8825 0.3725 0.0000
vt 0.8825 0.1175 0.0000
vt 0.8825 0.0000 0.0000
vt 0.1175 0.0000 0.0000
vt 0.1175 0.1175 0.0000
vt 0.1175 0.3725 0.0000
vt 0.1175 0.6275 0.0000
vt 0.1175 0.8825 0.0000
vt 0.1175 1.0000 0.0000
vt 0.1653 0.8825 0.0000
vt 0.3247 0.8825 0.0000
vt 0.3725 0.8825 0.0000
vt 0.6275 0.8825 0.0000
vt 0.6753 0.8825 0.0000
vt 0.8347 0.8825 0.0000
vt 0.8347 0.1175 0.0000
vt 0.6753 0.1175 0.0000
vt 0.6275 0.1175 0.0000
vt 0.3725 0.1175 0.0000
vt 0.3247 0.1175 0.0000
vt 0.1653 0.1175 0.0000
vt 0.3247 0.5797 0.0000
vt 0.1653 0.5797 0.0000
vt 0.1653 0.4203 0.0000
vt 0.3247 0.4203 0.0000
vt 0.6753 0.4203 0.0000
vt 0.8347 0.4203 0.0000
vt 0.8347 0.5797 0.0000
vt 0.6753 0.5797 0.0000
vt 0.5797 0.1653 0.0000
vt 0.5797 0.3247 0.0000
vt 0.4203 0.3247 0.0000
vt 0.4203 0.1653 0.0000
vt 0.4203 0.8347 0.0000
vt 0.4203 0.6753 0.0000
vt 0.5797 0.6753 0.0000
vt 0.5797 0.8347 0.0000
vt 0.3247 0.3247 0.0000
vt 0.1653 0.3247 0.0000
vt 0.1653 0.1653 0.0000
vt 0.3247 0.1653 0.0000
vt 0.1653 0.6753 0.0000
vt 0.3247 0.6753 0.0000
vt 0.3247 0.8347 0.0000
vt 0.1653 0.8347 0.0000
vt 0.6753 0.6753 0.0000
vt 0.8347 0.6753 0.0000
vt 0.8347 0.8347 0.0000
vt 0.6753 0.8347 0.0000
vt 0.8347 0.3247 0.0000
vt 0.6753 0.3247 0.0000
vt 0.6753 0.1653 0.0000
vt 0.8347 0.1653 0.0000
vt 0.3725 0.5797 0.0000
vt 0.3725 0.6275 0.0000
vt 0.3247 0.6275 0.0000
vt 0.3725 0.4203 0.0000
vt 0.3725 0.3725 0.0000
vt 0.3247 0.3725 0.0000
vt 0.1653 0.3725 0.0000
vt 0.1653 0.6275 0.0000
vt 0.3725 0.3247 0.0000
vt 0.3725 0.1653 0.0000
vt 0.3725 0.8347 0.0000
vt 0.3725 0.6753 0.0000
vt 0.6275 0.3725 0.0000
vt 0.6275 0.4203 0.0000
vt 0.6275 0.6275 0.0000
vt 0.6275 0.5797 0.0000
vt 0.6275 0.1653 0.0000
vt 0.6275 0.3247 0.0000
vt 0.6275 0.8347 0.0000
vt 0.6275 0.6753 0.0000
vt 0.6753 0.6275 0.0000
vt 0.6753 0.3725 0.0000
vt 0.8347 0.6275 0.0000
vt 0.8347 0.3725 0.0000
vt 1.0000 0.8571 0.0000
vt 0.0000 0.8571 0.0000
vt 0.0000 0.7143 0.0000
vt 1.0000 0.7143 0.0000
vt 1.0000 0.1429 0.0000
vt 0.0000 0.1429 0.0000
vt 1.0000 0.2857 0.0000
vt 0.0000 0.2857 0.0000
vt 0.1429 0.8571 0.0000
vt 0.2857 0.8571 0.0000
vt 0.4286 0.8571 0.0000
vt 0.5714 0.8571 0.0000
vt 0.7143 0.8571 0.0000
vt 0.8571 0.8571 0.0000
vt 0.1429 0.7143 0.0000
vt 0.2857 0.7143 0.0000
vt 0.4286 0.7143 0.0000
vt 0.5714 0.7143 0.0000
vt 0.7143 0.7143 0.0000
vt 0.8571 0.7143 0.0000
# 112 texture coords

o Box001
g Box001
usemtl wire_145028177
s 2
f 1/1/1 2/2/1 3/3/1 
f 3/3/1 4/4/1 1/1/1 
s 4
f 5/5/2 6/6/2 7/7/2 
f 7/7/2 8/8/2 5/5/2 
s 8
f 9/9/3 10/10/3 11/11/3 
f 11/11/3 12/12/3 9/9/3 
s 16
f 13/9/4 9/10/4 12/11/4 
f 12/11/4 14/12/4 13/9/4 
s 32
f 15/9/5 13/10/5 14/11/5 
f 14/11/5 16/12/5 15/9/5 
s 64
f 10/9/6 15/10/6 16/11/6 
f 16/11/6 11/12/6 10/9/6 
s 4
f 17/1/2 18/2/2 19/13/2 
f 17/1/2 19/13/2 20/14/2 
f 17/1/2 20/14/2 21/15/2 
f 17/1/2 21/15/2 22/16/2 
f 17/1/2 22/16/2 23/17/2 
f 24/18/2 17/1/2 23/17/2 
f 25/3/2 26/4/2 27/19/2 
f 25/3/2 27/19/2 28/20/2 
f 25/3/2 28/20/2 29/21/2 
f 25/3/2 29/21/2 30/22/2 
f 25/3/2 30/22/2 31/23/2 
f 32/24/2 25/3/2 31/23/2 
f 19/13/2 32/24/2 31/23/2 
f 19/13/2 31/23/2 33/25/2 
f 19/13/2 33/25/2 34/26/2 
f 19/13/2 34/26/2 35/27/2 
f 19/13/2 35/27/2 36/28/2 
f 19/13/2 36/28/2 37/29/2 
f 19/13/2 37/29/2 38/30/2 
f 20/14/2 19/13/2 38/30/2 
f 27/19/2 24/18/2 23/17/2 
f 27/19/2 23/17/2 39/31/2 
f 27/19/2 39/31/2 40/32/2 
f 27/19/2 40/32/2 41/33/2 
f 27/19/2 41/33/2 42/34/2 
f 27/19/2 42/34/2 43/35/2 
f 27/19/2 43/35/2 44/36/2 
f 28/20/2 27/19/2 44/36/2 
f 45/37/2 46/38/2 47/39/2 
f 47/39/2 48/40/2 45/37/2 
f 49/41/2 50/42/2 51/43/2 
f 51/43/2 52/44/2 49/41/2 
f 53/45/2 54/46/2 55/47/2 
f 55/47/2 56/48/2 53/45/2 
f 57/49/2 58/50/2 59/51/2 
f 59/51/2 60/52/2 57/49/2 
f 61/53/2 62/54/2 63/55/2 
f 63/55/2 64/56/2 61/53/2 
f 65/57/2 66/58/2 67/59/2 
f 67/59/2 68/60/2 65/57/2 
f 69/61/2 70/62/2 71/63/2 
f 71/63/2 72/64/2 69/61/2 
f 73/65/2 74/66/2 75/67/2 
f 75/67/2 76/68/2 73/65/2 
f 77/69/2 78/70/2 79/71/2 
f 80/72/2 77/69/2 79/71/2 
f 81/73/2 80/72/2 79/71/2 
f 81/73/2 79/71/2 82/37/2 
f 81/73/2 82/37/2 83/40/2 
f 84/74/2 81/73/2 83/40/2 
f 30/22/2 29/21/2 85/75/2 
f 30/22/2 85/75/2 86/39/2 
f 30/22/2 86/39/2 87/38/2 
f 88/76/2 30/22/2 87/38/2 
f 89/77/2 81/73/2 84/74/2 
f 90/78/2 89/77/2 84/74/2 
f 42/34/2 90/78/2 84/74/2 
f 42/34/2 84/74/2 91/53/2 
f 42/34/2 91/53/2 92/56/2 
f 43/35/2 42/34/2 92/56/2 
f 29/21/2 28/20/2 44/36/2 
f 29/21/2 44/36/2 93/55/2 
f 29/21/2 93/55/2 94/54/2 
f 85/75/2 29/21/2 94/54/2 
f 31/23/2 30/22/2 88/76/2 
f 31/23/2 88/76/2 95/57/2 
f 31/23/2 95/57/2 96/60/2 
f 33/25/2 31/23/2 96/60/2 
f 97/79/2 35/27/2 34/26/2 
f 98/80/2 97/79/2 34/26/2 
f 78/70/2 98/80/2 34/26/2 
f 78/70/2 34/26/2 99/59/2 
f 78/70/2 99/59/2 100/58/2 
f 79/71/2 78/70/2 100/58/2 
f 79/71/2 88/76/2 87/38/2 
f 87/38/2 82/37/2 79/71/2 
f 85/75/2 84/74/2 83/40/2 
f 83/40/2 86/39/2 85/75/2 
f 84/74/2 85/75/2 94/54/2 
f 94/54/2 91/53/2 84/74/2 
f 44/36/2 43/35/2 92/56/2 
f 92/56/2 93/55/2 44/36/2 
f 88/76/2 79/71/2 100/58/2 
f 100/58/2 95/57/2 88/76/2 
f 34/26/2 33/25/2 96/60/2 
f 96/60/2 99/59/2 34/26/2 
f 81/73/2 101/81/2 102/82/2 
f 81/73/2 102/82/2 103/5/2 
f 81/73/2 103/5/2 104/8/2 
f 80/72/2 81/73/2 104/8/2 
f 105/83/2 78/70/2 77/69/2 
f 105/83/2 77/69/2 106/7/2 
f 105/83/2 106/7/2 107/6/2 
f 108/84/2 105/83/2 107/6/2 
f 42/34/2 41/33/2 109/85/2 
f 42/34/2 109/85/2 110/45/2 
f 42/34/2 110/45/2 111/48/2 
f 90/78/2 42/34/2 111/48/2 
f 101/81/2 81/73/2 89/77/2 
f 101/81/2 89/77/2 112/47/2 
f 101/81/2 112/47/2 113/46/2 
f 114/86/2 101/81/2 113/46/2 
f 36/28/2 35/27/2 97/79/2 
f 36/28/2 97/79/2 115/49/2 
f 36/28/2 115/49/2 116/52/2 
f 117/87/2 36/28/2 116/52/2 
f 78/70/2 105/83/2 118/88/2 
f 78/70/2 118/88/2 119/51/2 
f 78/70/2 119/51/2 120/50/2 
f 98/80/2 78/70/2 120/50/2 
f 102/82/2 108/84/2 107/6/2 
f 107/6/2 103/5/2 102/82/2 
f 77/69/2 80/72/2 104/8/2 
f 104/8/2 106/7/2 77/69/2 
f 109/85/2 114/86/2 113/46/2 
f 113/46/2 110/45/2 109/85/2 
f 89/77/2 90/78/2 111/48/2 
f 111/48/2 112/47/2 89/77/2 
f 97/79/2 98/80/2 120/50/2 
f 120/50/2 115/49/2 97/79/2 
f 118/88/2 117/87/2 116/52/2 
f 116/52/2 119/51/2 118/88/2 
f 121/89/2 105/83/2 108/84/2 
f 121/89/2 108/84/2 102/82/2 
f 121/89/2 102/82/2 101/81/2 
f 101/81/2 122/90/2 123/41/2 
f 101/81/2 123/41/2 124/44/2 
f 121/89/2 101/81/2 124/44/2 
f 22/16/2 21/15/2 125/91/2 
f 22/16/2 125/91/2 126/43/2 
f 22/16/2 126/43/2 127/42/2 
f 128/92/2 22/16/2 127/42/2 
f 37/29/2 36/28/2 117/87/2 
f 37/29/2 117/87/2 118/88/2 
f 37/29/2 118/88/2 105/83/2 
f 105/83/2 121/89/2 129/61/2 
f 105/83/2 129/61/2 130/64/2 
f 37/29/2 105/83/2 130/64/2 
f 21/15/2 20/14/2 38/30/2 
f 21/15/2 38/30/2 131/63/2 
f 21/15/2 131/63/2 132/62/2 
f 125/91/2 21/15/2 132/62/2 
f 23/17/2 22/16/2 128/92/2 
f 23/17/2 128/92/2 133/65/2 
f 23/17/2 133/65/2 134/68/2 
f 39/31/2 23/17/2 134/68/2 
f 122/90/2 101/81/2 114/86/2 
f 122/90/2 114/86/2 109/85/2 
f 122/90/2 109/85/2 41/33/2 
f 41/33/2 40/32/2 135/67/2 
f 41/33/2 135/67/2 136/66/2 
f 122/90/2 41/33/2 136/66/2 
f 122/90/2 128/92/2 127/42/2 
f 127/42/2 123/41/2 122/90/2 
f 125/91/2 121/89/2 124/44/2 
f 124/44/2 126/43/2 125/91/2 
f 121/89/2 125/91/2 132/62/2 
f 132/62/2 129/61/2 121/89/2 
f 38/30/2 37/29/2 130/64/2 
f 130/64/2 131/63/2 38/30/2 
f 128/92/2 122/90/2 136/66/2 
f 136/66/2 133/65/2 128/92/2 
f 40/32/2 39/31/2 134/68/2 
f 134/68/2 135/67/2 40/32/2 
s off
f 104/8/5 103/5/5 5/5/5 
f 5/5/5 8/8/5 104/8/5 
f 103/5/6 107/6/6 6/6/6 
f 6/6/6 5/5/6 103/5/6 
f 107/6/3 106/7/3 7/7/3 
f 7/7/3 6/6/3 107/6/3 
f 106/7/4 104/8/4 8/8/4 
f 8/8/4 7/7/4 106/7/4 
f 83/40/6 82/37/6 45/37/6 
f 45/37/6 48/40/6 83/40/6 
f 82/37/3 87/38/3 46/38/3 
f 46/38/3 45/37/3 82/37/3 
f 87/38/4 86/39/4 47/39/4 
f 47/39/4 46/38/4 87/38/4 
f 86/39/5 83/40/5 48/40/5 
f 48/40/5 47/39/5 86/39/5 
f 124/44/4 123/41/4 49/41/4 
f 49/41/4 52/44/4 124/44/4 
f 123/41/5 127/42/5 50/42/5 
f 50/42/5 49/41/5 123/41/5 
f 127/42/6 126/43/6 51/43/6 
f 51/43/6 50/42/6 127/42/6 
f 126/43/3 124/44/3 52/44/3 
f 52/44/3 51/43/3 126/43/3 
f 111/48/5 110/45/5 53/45/5 
f 53/45/5 56/48/5 111/48/5 
f 110/45/6 113/46/6 54/46/6 
f 54/46/6 53/45/6 110/45/6 
f 113/46/3 112/47/3 55/47/3 
f 55/47/3 54/46/3 113/46/3 
f 112/47/4 111/48/4 56/48/4 
f 56/48/4 55/47/4 112/47/4 
f 116/52/3 115/49/3 57/49/3 
f 57/49/3 60/52/3 116/52/3 
f 115/49/4 120/50/4 58/50/4 
f 58/50/4 57/49/4 115/49/4 
f 120/50/5 119/51/5 59/51/5 
f 59/51/5 58/50/5 120/50/5 
f 119/51/6 116/52/6 60/52/6 
f 60/52/6 59/51/6 119/51/6 
f 92/56/6 91/53/6 61/53/6 
f 61/53/6 64/56/6 92/56/6 
f 91/53/3 94/54/3 62/54/3 
f 62/54/3 61/53/3 91/53/3 
f 94/54/4 93/55/4 63/55/4 
f 63/55/4 62/54/4 94/54/4 
f 93/55/5 92/56/5 64/56/5 
f 64/56/5 63/55/5 93/55/5 
f 96/60/4 95/57/4 65/57/4 
f 65/57/4 68/60/4 96/60/4 
f 95/57/5 100/58/5 66/58/5 
f 66/58/5 65/57/5 95/57/5 
f 100/58/6 99/59/6 67/59/6 
f 67/59/6 66/58/6 100/58/6 
f 99/59/3 96/60/3 68/60/3 
f 68/60/3 67/59/3 99/59/3 
f 130/64/4 129/61/4 69/61/4 
f 69/61/4 72/64/4 130/64/4 
f 129/61/5 132/62/5 70/62/5 
f 70/62/5 69/61/5 129/61/5 
f 132/62/6 131/63/6 71/63/6 
f 71/63/6 70/62/6 132/62/6 
f 131/63/3 130/64/3 72/64/3 
f 72/64/3 71/63/3 131/63/3 
f 134/68/6 133/65/6 73/65/6 
f 73/65/6 76/68/6 134/68/6 
f 133/65/3 136/66/3 74/66/3 
f 74/66/3 73/65/3 133/65/3 
f 136/66/4 135/67/4 75/67/4 
f 75/67/4 74/66/4 136/66/4 
f 135/67/5 134/68/5 76/68/5 
f 76/68/5 75/67/5 135/67/5 
s 8
f 137/93/3 17/2/3 24/13/3 
f 137/93/3 24/13/3 27/24/3 
f 137/93/3 27/24/3 26/3/3 
f 137/93/3 26/3/3 138/94/3 
f 137/93/3 138/94/3 139/95/3 
f 139/95/3 140/96/3 137/93/3 
f 140/96/3 139/95/3 10/10/3 
f 10/10/3 9/9/3 140/96/3 
f 1/4/3 4/1/3 141/97/3 
f 141/97/3 142/98/3 1/4/3 
f 142/98/3 141/97/3 143/99/3 
f 143/99/3 144/100/3 142/98/3 
f 144/100/3 143/99/3 12/12/3 
f 12/12/3 11/11/3 144/100/3 
s 16
f 18/2/4 17/3/4 137/94/4 
f 18/2/4 137/94/4 145/101/4 
f 18/2/4 145/101/4 146/102/4 
f 18/2/4 146/102/4 147/103/4 
f 18/2/4 147/103/4 148/104/4 
f 18/2/4 148/104/4 149/105/4 
f 18/2/4 149/105/4 150/106/4 
f 151/93/4 18/2/4 150/106/4 
f 152/107/4 140/95/4 9/10/4 
f 153/108/4 152/107/4 9/10/4 
f 154/109/4 153/108/4 9/10/4 
f 155/110/4 154/109/4 9/10/4 
f 156/111/4 155/110/4 9/10/4 
f 157/112/4 156/111/4 9/10/4 
f 158/96/4 157/112/4 9/10/4 
f 13/9/4 158/96/4 9/10/4 
f 4/4/4 3/1/4 159/97/4 
f 159/97/4 141/98/4 4/4/4 
f 141/98/4 159/97/4 160/99/4 
f 160/99/4 143/100/4 141/98/4 
f 143/100/4 160/99/4 14/12/4 
f 14/12/4 12/11/4 143/100/4 
s 32
f 161/93/5 25/2/5 32/13/5 
f 161/93/5 32/13/5 19/24/5 
f 161/93/5 19/24/5 18/3/5 
f 161/93/5 18/3/5 151/94/5 
f 161/93/5 151/94/5 158/95/5 
f 158/95/5 162/96/5 161/93/5 
f 162/96/5 158/95/5 13/10/5 
f 13/10/5 15/9/5 162/96/5 
f 3/4/5 2/1/5 163/97/5 
f 163/97/5 159/98/5 3/4/5 
f 159/98/5 163/97/5 164/99/5 
f 164/99/5 160/100/5 159/98/5 
f 160/100/5 164/99/5 16/12/5 
f 16/12/5 14/11/5 160/100/5 
s 64
f 26/2/6 25/3/6 161/94/6 
f 26/2/6 161/94/6 165/101/6 
f 26/2/6 165/101/6 166/102/6 
f 26/2/6 166/102/6 167/103/6 
f 26/2/6 167/103/6 168/104/6 
f 26/2/6 168/104/6 169/105/6 
f 26/2/6 169/105/6 170/106/6 
f 138/93/6 26/2/6 170/106/6 
f 171/107/6 162/95/6 15/10/6 
f 172/108/6 171/107/6 15/10/6 
f 173/109/6 172/108/6 15/10/6 
f 174/110/6 173/109/6 15/10/6 
f 175/111/6 174/110/6 15/10/6 
f 176/112/6 175/111/6 15/10/6 
f 139/96/6 176/112/6 15/10/6 
f 10/9/6 139/96/6 15/10/6 
f 2/4/6 1/1/6 142/97/6 
f 142/97/6 163/98/6 2/4/6 
f 163/98/6 142/97/6 144/99/6 
f 144/99/6 164/100/6 163/98/6 
f 164/100/6 144/99/6 11/12/6 
f 11/12/6 16/11/6 164/100/6 
s 16
f 137/94/4 140/95/4 152/107/4 
f 152/107/4 145/101/4 137/94/4 
f 145/101/4 152/107/4 153/108/4 
f 153/108/4 146/102/4 145/101/4 
f 158/96/4 151/93/4 150/106/4 
f 150/106/4 157/112/4 158/96/4 
f 157/112/4 150/106/4 149/105/4 
f 149/105/4 156/111/4 157/112/4 
s 64
f 161/94/6 162/95/6 171/107/6 
f 171/107/6 165/101/6 161/94/6 
f 165/101/6 171/107/6 172/108/6 
f 172/108/6 166/102/6 165/101/6 
f 139/96/6 138/93/6 170/106/6 
f 170/106/6 176/112/6 139/96/6 
f 176/112/6 170/106/6 169/105/6 
f 169/105/6 175/111/6 176/112/6 
s off
f 177/104/6 178/110/6 179/111/6 
f 179/111/6 180/105/6 177/104/6 
f 181/104/4 182/110/4 183/111/4 
f 183/111/4 184/105/4 181/104/4 
f 167/103/6 173/109/6 174/110/6 
f 174/110/6 168/104/6 167/103/6 
f 185/102/6 186/108/6 187/109/6 
f 187/109/6 188/103/6 185/102/6 
f 189/102/4 190/108/4 191/109/4 
f 191/109/4 192/103/4 189/102/4 
f 148/104/4 147/103/4 154/109/4 
f 154/109/4 155/110/4 148/104/4 
f 169/105/2 168/104/2 193/104/2 
f 193/104/2 194/105/2 169/105/2 
f 168/104/5 174/110/5 195/110/5 
f 195/110/5 193/104/5 168/104/5 
f 174/110/1 175/111/1 196/111/1 
f 196/111/1 195/110/1 174/110/1 
f 175/111/3 169/105/3 194/105/3 
f 194/105/3 196/111/3 175/111/3 
f 149/105/2 148/104/2 197/104/2 
f 197/104/2 198/105/2 149/105/2 
f 148/104/3 155/110/3 199/110/3 
f 199/110/3 197/104/3 148/104/3 
f 155/110/1 156/111/1 200/111/1 
f 200/111/1 199/110/1 155/110/1 
f 156/111/5 149/105/5 198/105/5 
f 198/105/5 200/111/5 156/111/5 
f 167/103/2 166/102/2 201/102/2 
f 201/102/2 202/103/2 167/103/2 
f 166/102/5 172/108/5 203/108/5 
f 203/108/5 201/102/5 166/102/5 
f 172/108/1 173/109/1 204/109/1 
f 204/109/1 203/108/1 172/108/1 
f 173/109/3 167/103/3 202/103/3 
f 202/103/3 204/109/3 173/109/3 
f 147/103/2 146/102/2 205/102/2 
f 205/102/2 206/103/2 147/103/2 
f 146/102/3 153/108/3 207/108/3 
f 207/108/3 205/102/3 146/102/3 
f 153/108/1 154/109/1 208/109/1 
f 208/109/1 207/108/1 153/108/1 
f 154/109/5 147/103/5 206/103/5 
f 206/103/5 208/109/5 154/109/5 
f 194/105/2 193/104/2 177/104/2 
f 177/104/2 180/105/2 194/105/2 
f 195/110/1 196/111/1 179/111/1 
f 179/111/1 178/110/1 195/110/1 
f 196/111/3 194/105/3 180/105/3 
f 180/105/3 179/111/3 196/111/3 
f 198/105/2 197/104/2 181/104/2 
f 181/104/2 184/105/2 198/105/2 
f 199/110/1 200/111/1 183/111/1 
f 183/111/1 182/110/1 199/110/1 
f 200/111/5 198/105/5 184/105/5 
f 184/105/5 183/111/5 200/111/5 
f 202/103/2 201/102/2 185/102/2 
f 185/102/2 188/103/2 202/103/2 
f 201/102/5 203/108/5 186/108/5 
f 186/108/5 185/102/5 201/102/5 
f 203/108/1 204/109/1 187/109/1 
f 187/109/1 186/108/1 203/108/1 
f 206/103/2 205/102/2 189/102/2 
f 189/102/2 192/103/2 206/103/2 
f 205/102/3 207/108/3 190/108/3 
f 190/108/3 189/102/3 205/102/3 
f 207/108/1 208/109/1 191/109/1 
f 191/109/1 190/108/1 207/108/1 
s 1
f 181/104/2 197/104/2 206/103/2 
f 206/103/2 192/103/2 181/104/2 
s 2
f 197/104/6 199/110/6 208/109/6 
f 208/109/6 206/103/6 197/104/6 
s 1
f 199/110/1 182/110/1 191/109/1 
f 191/109/1 208/109/1 199/110/1 
s 2
f 182/110/4 181/104/4 192/103/4 
f 192/103/4 191/109/4 182/110/4 
s 1
f 177/104/2 193/104/2 202/103/2 
f 202/103/2 188/103/2 177/104/2 
s 2
f 193/104/4 195/110/4 204/109/4 
f 204/109/4 202/103/4 193/104/4 
s 1
f 195/110/1 178/110/1 187/109/1 
f 187/109/1 204/109/1 195/110/1 
s 2
f 178/110/6 177/104/6 188/103/6 
f 188/103/6 187/109/6 178/110/6 
# 420 faces

