# 3ds Max Wavefront OBJ Exporter v0.97b - (c)2007 guruware
# File Created: 22.11.2020 21:38:13

mtllib tree.mtl

#
# object Box001
#

v  -1.6241 0.0759 1.3079
v  -1.0644 0.0759 1.3079
v  -1.0644 0.0759 0.6552
v  -1.0644 0.0759 -0.6582
v  -1.0644 0.0759 -1.3367
v  -1.6241 0.0759 -1.3367
v  -1.6241 -1.2695 1.3079
v  -1.6241 -1.2695 -1.3056
v  -0.8004 -1.2695 -1.3056
v  -0.8004 -1.2695 -0.3149
v  -0.8004 -1.2695 0.5104
v  -0.8004 -1.2695 1.3079
v  0.8426 -1.2695 1.3079
v  1.6398 -1.2695 1.3079
v  1.6398 0.0759 1.3079
v  1.0544 0.0759 1.3079
v  1.6398 -1.2695 -1.3056
v  1.6398 0.0759 -1.3056
v  0.8426 -1.2695 -1.3056
v  1.0544 0.0759 -1.3056
v  1.0544 0.0759 0.6552
v  1.0544 0.0759 -0.6582
v  0.8426 -1.2695 -0.3149
v  0.3905 -1.2695 -0.3149
v  -0.4105 -1.2695 -0.3149
v  0.8426 -1.2695 0.5104
v  -0.4105 -1.2695 0.5104
v  0.3905 -1.2695 0.5104
v  1.0544 1.0379 -0.6582
v  -1.0644 1.0379 -0.6582
v  -1.0644 1.0379 0.6552
v  1.0544 1.0379 0.6552
v  0.3905 -4.2669 -0.3149
v  0.3905 -4.2669 0.5104
v  -0.4105 -4.2669 0.5104
v  -0.4105 -4.2669 -0.3149
# 36 vertices

vn -0.5774 0.5774 0.5774
vn 0.0000 0.7071 0.7071
vn -0.3015 0.9045 0.3015
vn -0.3015 0.9045 -0.3015
vn 0.0000 1.0000 -0.0000
vn -0.5761 0.5712 -0.5846
vn -0.5774 -0.5774 0.5774
vn -0.5786 -0.5834 -0.5700
vn 0.0033 -0.7111 -0.7030
vn 0.0000 -1.0000 -0.0000
vn 0.0000 -0.7071 0.7071
vn 0.5774 -0.5774 0.5774
vn 0.5774 0.5774 0.5774
vn 0.5774 -0.5774 -0.5774
vn 0.5774 0.5774 -0.5774
vn 0.3015 0.9045 0.3015
vn 0.3015 0.9045 -0.3015
vn 0.3015 -0.9045 -0.3015
vn -0.3015 -0.9045 -0.3015
vn -0.3015 -0.9045 0.3015
vn 0.3015 -0.9045 0.3015
vn -0.5774 0.5774 -0.5774
vn -0.5774 -0.5774 -0.5774
# 23 vertex normals

vt 0.5091 0.9759 0.0000
vt 0.4233 0.9155 0.0000
vt 0.4519 0.8784 0.0000
vt 0.4519 0.7370 0.0000
vt 0.4233 0.7005 0.0000
vt 0.5091 0.6381 0.0000
vt 0.5110 0.3224 0.0000
vt 0.5110 0.0375 0.0000
vt 0.6008 0.0375 0.0000
vt 0.6008 0.1455 0.0000
vt 0.6008 0.2355 0.0000
vt 0.6008 0.3224 0.0000
vt 0.0200 0.4880 0.0000
vt 0.1381 0.4880 0.0000
vt 0.3737 0.4880 0.0000
vt 0.4880 0.4880 0.0000
vt 0.4041 0.4880 0.0000
vt 0.1003 0.4880 0.0000
vt 0.4880 0.0255 0.0000
vt 0.3737 0.0255 0.0000
vt 0.1381 0.0255 0.0000
vt 0.0200 0.0255 0.0000
vt 0.0200 0.0200 0.0000
vt 0.1003 0.0200 0.0000
vt 0.4041 0.0255 0.0000
vt 0.6653 0.9149 0.0000
vt 0.6367 0.8784 0.0000
vt 0.5763 0.9746 0.0000
vt 0.5763 0.6408 0.0000
vt 0.6653 0.6999 0.0000
vt 0.6367 0.7370 0.0000
vt 0.7798 0.0375 0.0000
vt 0.7798 0.1455 0.0000
vt 0.7306 0.1455 0.0000
vt 0.6433 0.1455 0.0000
vt 0.8667 0.0375 0.0000
vt 0.8667 0.3224 0.0000
vt 0.7798 0.3224 0.0000
vt 0.7798 0.2355 0.0000
vt 0.6433 0.2355 0.0000
vt 0.7306 0.2355 0.0000
vt 0.9114 0.8179 0.0000
vt 0.6995 0.8179 0.0000
vt 0.6995 0.9800 0.0000
vt 0.9114 0.9800 0.0000
vt 0.5241 0.3444 0.0000
vt 0.5241 0.5974 0.0000
vt 0.8549 0.5974 0.0000
vt 0.8549 0.3444 0.0000
vt 0.1042 0.5823 0.0000
vt 0.1042 0.6816 0.0000
vt 0.0262 0.6816 0.0000
vt 0.0262 0.5823 0.0000
vt 0.0200 0.9759 0.0000
vt 0.0200 0.7135 0.0000
vt 0.3856 0.7135 0.0000
vt 0.3856 0.9759 0.0000
# 57 texture coords

o Box001
g Box001
usemtl 20___Default
s 2
f 1/1/1 2/2/2 3/3/3 4/4/4 5/5/5 6/6/6 
s 4
f 7/7/7 8/8/8 9/9/9 10/10/10 11/11/10 12/12/11 
s 8
f 1/13/1 7/13/7 12/14/11 13/15/11 14/16/12 15/16/13 16/17/2 2/18/2 
s 16
f 15/16/13 14/16/12 17/19/14 18/19/15 
s 32
f 18/19/15 17/19/14 19/20/9 9/21/9 8/22/8 6/23/6 5/24/5 20/25/5 
s 64
f 6/23/6 8/22/8 7/13/7 1/13/1 
s 2
f 2/2/2 16/26/2 21/27/16 3/3/3 
f 16/26/2 15/28/13 18/29/15 20/30/5 22/31/17 21/27/16 
f 22/31/17 20/30/5 5/5/5 4/4/4 
s 4
f 9/9/9 19/32/9 23/33/10 24/34/18 25/35/19 10/10/10 
f 19/32/9 17/36/14 14/37/12 13/38/11 26/39/10 23/33/10 
f 26/39/10 13/38/11 12/12/11 11/11/10 27/40/20 28/41/21 
f 23/33/10 26/39/10 28/41/21 24/34/18 
f 27/40/20 11/11/10 10/10/10 25/35/19 
s 1
f 29/42/15 30/43/22 31/44/1 32/45/13 
s off
f 4/46/4 3/47/3 31/47/1 30/46/22 
f 3/47/3 21/48/16 32/48/13 31/47/1 
f 21/48/16 22/49/17 29/49/15 32/48/13 
f 22/49/17 4/46/4 30/46/22 29/49/15 
s 1
f 33/50/14 34/51/12 35/52/7 36/53/23 
s off
f 27/54/20 25/55/19 36/55/23 35/54/7 
f 25/55/19 24/56/18 33/56/14 36/55/23 
f 24/56/18 28/57/21 34/57/12 33/56/14 
f 28/57/21 27/54/20 35/54/7 34/57/12 
# 24 polygons

