# 3ds Max Wavefront OBJ Exporter v0.97b - (c)2007 guruware
# File Created: 21.11.2020 16:49:11

mtllib ??.mtl

#
# object Box002
#

v  -0.6816 0.0000 1.8977
v  0.7796 0.0000 1.8977
v  0.7796 0.0000 0.4468
v  -0.6816 0.0000 0.4468
v  -0.6816 -0.0815 1.8977
v  -0.6816 -0.0815 0.4468
v  0.7796 -0.0815 0.4468
v  0.7796 -0.0815 1.8977
v  0.3660 -0.0792 1.7717
v  0.6333 -0.0792 1.7717
v  0.6333 -0.0792 1.5643
v  0.3660 -0.0792 1.5643
v  0.3660 -0.4403 1.7717
v  0.3660 -0.4403 1.5643
v  0.6333 -0.4403 1.5643
v  0.6333 -0.4403 1.7717
v  0.3730 -0.0792 0.7407
v  0.6403 -0.0792 0.7407
v  0.6403 -0.0792 0.5334
v  0.3730 -0.0792 0.5334
v  0.3730 -0.4403 0.7407
v  0.3730 -0.4403 0.5334
v  0.6403 -0.4403 0.5334
v  0.6403 -0.4403 0.7407
v  -0.5019 -0.0792 0.7449
v  -0.2346 -0.0792 0.7449
v  -0.2346 -0.0792 0.5376
v  -0.5019 -0.0792 0.5376
v  -0.5019 -0.4403 0.7449
v  -0.5019 -0.4403 0.5376
v  -0.2346 -0.4403 0.5376
v  -0.2346 -0.4403 0.7449
v  -0.5057 -0.0792 1.7721
v  -0.2384 -0.0792 1.7721
v  -0.2384 -0.0792 1.5647
v  -0.5057 -0.0792 1.5647
v  -0.5057 -0.4403 1.7721
v  -0.5057 -0.4403 1.5647
v  -0.2384 -0.4403 1.5647
v  -0.2384 -0.4403 1.7721
# 40 vertices

vn -0.5774 0.5774 0.5774
vn 0.5774 0.5774 0.5774
vn 0.5774 0.5774 -0.5774
vn -0.5774 0.5774 -0.5774
vn -0.5774 -0.5774 0.5774
vn -0.5774 -0.5774 -0.5774
vn 0.5774 -0.5774 -0.5774
vn 0.5774 -0.5774 0.5774
# 8 vertex normals

vt 1.0000 0.0000 0.0000
vt 0.0000 0.0000 0.0000
vt 0.0000 1.0000 0.0000
vt 1.0000 1.0000 0.0000
# 4 texture coords

o Box002
g Box002
usemtl wire_135059008
s 2
f 1/1/1 2/2/2 3/3/3 4/4/4 
s 4
f 5/2/5 6/3/6 7/4/7 8/1/8 
s 8
f 1/2/1 5/3/5 8/4/8 2/1/2 
s 16
f 2/2/2 8/3/8 7/4/7 3/1/3 
s 32
f 3/2/3 7/3/7 6/4/6 4/1/4 
s 64
f 4/2/4 6/3/6 5/4/5 1/1/1 
s 2
f 9/1/1 10/2/2 11/3/3 12/4/4 
s 4
f 13/2/5 14/3/6 15/4/7 16/1/8 
s 8
f 9/2/1 13/3/5 16/4/8 10/1/2 
s 16
f 10/2/2 16/3/8 15/4/7 11/1/3 
s 32
f 11/2/3 15/3/7 14/4/6 12/1/4 
s 64
f 12/2/4 14/3/6 13/4/5 9/1/1 
s 2
f 17/1/1 18/2/2 19/3/3 20/4/4 
s 4
f 21/2/5 22/3/6 23/4/7 24/1/8 
s 8
f 17/2/1 21/3/5 24/4/8 18/1/2 
s 16
f 18/2/2 24/3/8 23/4/7 19/1/3 
s 32
f 19/2/3 23/3/7 22/4/6 20/1/4 
s 64
f 20/2/4 22/3/6 21/4/5 17/1/1 
s 2
f 25/1/1 26/2/2 27/3/3 28/4/4 
s 4
f 29/2/5 30/3/6 31/4/7 32/1/8 
s 8
f 25/2/1 29/3/5 32/4/8 26/1/2 
s 16
f 26/2/2 32/3/8 31/4/7 27/1/3 
s 32
f 27/2/3 31/3/7 30/4/6 28/1/4 
s 64
f 28/2/4 30/3/6 29/4/5 25/1/1 
s 2
f 33/1/1 34/2/2 35/3/3 36/4/4 
s 4
f 37/2/5 38/3/6 39/4/7 40/1/8 
s 8
f 33/2/1 37/3/5 40/4/8 34/1/2 
s 16
f 34/2/2 40/3/8 39/4/7 35/1/3 
s 32
f 35/2/3 39/3/7 38/4/6 36/1/4 
s 64
f 36/2/4 38/3/6 37/4/5 33/1/1 
# 30 polygons

